<svg width="24" height="24" viewBox="0 0 24 24" fill="none" xmlns="http://www.w3.org/2000/svg">
<path d="M19.2518 1.85938H4.44818C2.81995 1.85938 1.5 3.17932 1.5 4.80756V19.1721C1.5 20.8003 2.81995 22.1203 4.44818 22.1203H19.2518C20.8801 22.1203 22.2 20.8003 22.2 19.1721V4.80756C22.2 3.17932 20.8801 1.85938 19.2518 1.85938Z" fill="url(#paint0_radial_1692_26169)"/>
<path d="M18.9861 12.701C18.9306 13.45 17.5702 13.9595 15.9476 13.8393C12.5744 13.9053 11.8484 13.6163 13.4996 12.7009C13.52 12.4253 14.0544 11.9376 14.3096 11.6717C14.7479 11.2151 15.1231 11.0512 16.1486 11.1272C17.7712 11.2475 19.0417 11.9521 18.9861 12.701Z" fill="url(#paint1_linear_1692_26169)"/>
<path d="M18.9861 12.6994C18.9306 13.4483 17.5702 13.9579 15.9476 13.8377C12.5744 13.9037 11.8484 13.6147 13.4996 12.6992L13.2569 12.9483C13.1188 13.0901 13.0185 13.2836 13.0908 13.4679C13.3375 14.0966 14.4773 14.6376 15.8806 14.7417C17.5032 14.8619 18.8636 14.3523 18.9191 13.6034L18.9861 12.6994Z" fill="#7825E5"/>
<path d="M18.8709 13.5997C18.8454 13.9439 18.5169 14.2483 17.9707 14.4529C17.4288 14.6559 16.6903 14.7529 15.8844 14.6931C15.1876 14.6415 14.5576 14.4814 14.0725 14.2573C13.7919 14.1277 13.5626 13.978 13.3963 13.8176C13.5455 13.8372 13.7158 13.8529 13.9071 13.8648C14.4252 13.897 15.104 13.9026 15.9469 13.8861C16.7626 13.9462 17.5146 13.8486 18.0718 13.6399C18.4537 13.4968 18.7527 13.2978 18.9112 13.0552L18.8709 13.5997ZM16.1452 11.1739C16.9512 11.2337 17.6673 11.4385 18.1733 11.7192C18.6834 12.002 18.9634 12.3516 18.9379 12.6957C18.9124 13.0399 18.5839 13.3443 18.0377 13.5489C17.4958 13.7519 16.7573 13.8489 15.9514 13.7892L15.9491 13.789H15.9468C15.104 13.8055 14.4277 13.7998 13.9131 13.7678C13.6678 13.7526 13.4607 13.7312 13.2906 13.7041C13.222 13.6212 13.17 13.5361 13.1362 13.45C13.0748 13.2934 13.1575 13.12 13.2919 12.9822L13.5346 12.733L13.5469 12.7203L13.5482 12.7027C13.5524 12.6463 13.5841 12.5726 13.6399 12.4857C13.695 12.4 13.7698 12.3071 13.8531 12.2131C14.0205 12.0243 14.2148 11.839 14.3448 11.7037C14.5608 11.4786 14.7576 11.3295 15.0238 11.2443C15.2917 11.1586 15.6346 11.1361 16.1452 11.1739ZM13.2134 12.9238C13.0755 13.0692 12.9645 13.2781 13.0458 13.4856C13.0716 13.5513 13.1065 13.6157 13.1496 13.6786C13.0291 13.6537 12.9325 13.6249 12.8596 13.5921C12.7645 13.5493 12.7197 13.5045 12.7051 13.463C12.6915 13.4239 12.6994 13.3722 12.7508 13.3009C12.802 13.2297 12.8911 13.1472 13.0211 13.0529C13.0779 13.0117 13.142 12.9688 13.2134 12.9238Z" stroke="#601CB9" stroke-width="0.0971244"/>
<mask id="mask0_1692_26169" style="mask-type:luminance" maskUnits="userSpaceOnUse" x="14" y="11" width="5" height="3">
<path d="M18.1693 11.502L14.4531 11.2266L14.3095 13.1637L18.0257 13.4392L18.1693 11.502Z" fill="white"/>
</mask>
<g mask="url(#mask0_1692_26169)">
<path d="M16.2573 13.142L16.2567 13.1493L14.5527 13.023L14.5533 13.0157L16.2573 13.142ZM17.6097 13.0341L17.3277 13.1554L15.384 11.9504L15.666 11.8292L17.6097 13.0341ZM15.6639 12.5451L15.3823 12.6665L14.7004 12.2442L14.9822 12.1229L15.6639 12.5451ZM17.0289 11.9574L16.7472 12.0788L16.0653 11.6565L16.347 11.5352L17.0289 11.9574Z" fill="#7825E5" stroke="#7825E5" stroke-width="0.154535"/>
</g>
<path d="M12.3892 9.71957C12.3872 10.5784 11.8743 10.9698 10.0137 10.9654C8.15306 10.9609 6.6464 10.2611 6.64844 9.40229C6.65054 8.54357 8.16056 7.85105 10.0212 7.85549C11.8818 7.85999 12.3913 8.86085 12.3892 9.71957Z" fill="url(#paint2_linear_1692_26169)"/>
<path d="M12.3897 9.71962C12.3877 10.5784 11.8748 10.9698 10.0142 10.9654C8.15357 10.9609 6.64691 10.2611 6.64895 9.40234L6.64649 10.439C6.64439 11.2977 8.15105 11.9975 10.0117 12.002C11.8302 12.0063 10.8997 10.2944 12.0653 9.86722C12.1202 9.84712 12.1761 9.82648 12.2283 9.80032L12.3897 9.71962Z" fill="#7825E5"/>
<path d="M6.70463 9.8138C6.86423 10.1042 7.18781 10.3572 7.61075 10.5537C8.22851 10.8406 9.07865 11.0177 10.0151 11.02C10.5271 11.0212 10.9409 10.9925 11.2721 10.9312C11.2586 10.9817 11.2452 11.0314 11.2311 11.0799C11.1615 11.3183 11.0744 11.5323 10.8999 11.688C10.7267 11.8425 10.4589 11.9466 10.0129 11.9455C9.08879 11.9433 8.25521 11.7683 7.65509 11.4895C7.05017 11.2086 6.70217 10.8328 6.70313 10.4382L6.70463 9.8138ZM10.0226 7.91018C10.9432 7.9124 11.5198 8.16086 11.8661 8.50568C12.2033 8.84132 12.3294 9.27548 12.335 9.68444L12.2046 9.74972C12.1556 9.77426 12.1025 9.79388 12.0473 9.81416C11.7396 9.92684 11.5694 10.1259 11.4594 10.3568C11.3915 10.4992 11.3455 10.6566 11.3037 10.8121C10.9768 10.8778 10.5549 10.9102 10.0154 10.9089C9.09125 10.9067 8.25773 10.7317 7.65755 10.4529C7.06211 10.1764 6.71555 9.80798 6.70577 9.42008L6.70559 9.40154L6.70589 9.38312C6.71753 8.99522 7.06583 8.6285 7.66259 8.35478C8.26415 8.07896 9.09851 7.90796 10.0226 7.91018ZM12.3329 9.80972C12.3243 9.97982 12.2923 10.1263 12.2306 10.2517C12.1586 10.3982 12.0444 10.5196 11.8727 10.617C11.7531 10.6848 11.606 10.7407 11.4265 10.7848C11.463 10.6521 11.5028 10.5238 11.5596 10.4046C11.6597 10.1945 11.8103 10.0192 12.0854 9.91844C12.14 9.89846 12.1988 9.87686 12.2543 9.84908L12.3329 9.80972Z" stroke="#601CB9" stroke-width="0.111065"/>
<path d="M10.3114 10.1487L10.3113 10.1571L8.35742 10.1524V10.144L10.3114 10.1487ZM11.8451 9.91509L11.5334 10.0764L9.21794 8.86095L9.52952 8.69961L11.8451 9.91509ZM9.5858 9.51651L9.2744 9.67779L8.46212 9.25197L8.77352 9.09063L9.5858 9.51651ZM11.0946 8.73447L10.7832 8.89593L9.971 8.47005L10.2823 8.30859L11.0946 8.73447Z" fill="#7825E5" stroke="#7825E5" stroke-width="0.176717"/>
<path d="M5.43102 12.5273H2.78307C2.6715 12.5273 2.55429 12.5367 2.4646 12.603C2.37425 12.6698 2.30646 12.7786 2.31889 12.9706C1.80537 13.0105 1.71269 13.3135 1.82654 13.7093L6.06175 13.7257C6.24655 13.7446 6.25213 13.6006 6.20947 13.2661C6.07867 13.0086 5.9773 12.9364 5.73344 12.9706C5.65606 12.772 5.73812 12.6372 5.43102 12.5273Z" fill="url(#paint3_linear_1692_26169)"/>
<path d="M5.43102 12.5273H2.78307C2.6715 12.5273 2.55429 12.5367 2.4646 12.603C2.37425 12.6698 2.30646 12.7786 2.31889 12.9706C1.80537 13.0105 1.71269 13.3135 1.82654 13.7093L6.06175 13.7257C6.24655 13.7446 6.25213 13.6006 6.20947 13.2661C6.07867 13.0086 5.9773 12.9364 5.73344 12.9706C5.65606 12.772 5.73812 12.6372 5.43102 12.5273Z" stroke="black" stroke-width="0.0984948"/>
<path d="M5.43102 12.5273H2.78307C2.6715 12.5273 2.55429 12.5367 2.4646 12.603C2.37425 12.6698 2.30646 12.7786 2.31889 12.9706C1.80537 13.0105 1.71269 13.3135 1.82654 13.7093L6.06175 13.7257C6.24655 13.7446 6.25213 13.6006 6.20947 13.2661C6.07867 13.0086 5.9773 12.9364 5.73344 12.9706C5.65606 12.772 5.73812 12.6372 5.43102 12.5273Z" stroke="url(#paint4_linear_1692_26169)" stroke-width="0.0984948"/>
<path d="M9.76353 14.4236C9.76353 15.2724 8.27265 15.9606 6.43353 15.9606C4.59441 15.9606 3.10352 15.2724 3.10352 14.4236C3.10352 13.5748 4.59441 12.8867 6.43353 12.8867C8.27265 12.8867 9.76353 13.5748 9.76353 14.4236Z" fill="url(#paint5_linear_1692_26169)"/>
<path d="M9.76353 14.4258C9.76353 15.2746 8.27265 15.9627 6.43353 15.9627C4.59441 15.9627 3.10352 15.2746 3.10352 14.4258V15.4504C3.10352 16.2992 4.59441 16.9874 6.43353 16.9874C8.27265 16.9874 9.76353 16.2992 9.76353 15.4504V14.4258Z" fill="#7825E5"/>
<path d="M9.70842 15.448C9.70842 15.8381 9.36354 16.2087 8.76498 16.485C8.1711 16.7591 7.34676 16.9301 6.43332 16.9301C5.51985 16.9301 4.69552 16.7591 4.10163 16.485C3.50308 16.2087 3.15821 15.8381 3.1582 15.448V14.8309C3.31669 15.1175 3.63708 15.3668 4.05563 15.56C4.66696 15.8422 5.50765 16.0152 6.43332 16.0152C7.35894 16.0152 8.19966 15.8422 8.811 15.56C9.2295 15.3668 9.5499 15.1175 9.70842 14.8309V15.448ZM6.43332 12.9414C7.34676 12.9414 8.1711 13.1124 8.76498 13.3865C9.36354 13.6627 9.70842 14.0333 9.70842 14.4234C9.70842 14.8135 9.36354 15.1841 8.76498 15.4603C8.1711 15.7345 7.34676 15.9055 6.43332 15.9055C5.51985 15.9055 4.69552 15.7345 4.10163 15.4603C3.51243 15.1884 3.16903 14.8251 3.15844 14.4417L3.1582 14.4234L3.15844 14.4052C3.16904 14.0218 3.51244 13.6584 4.10163 13.3865C4.69552 13.1124 5.51985 12.9414 6.43332 12.9414Z" stroke="#601CB9" stroke-width="0.10978"/>
<path d="M6.72426 15.1508V15.1591H4.79297V15.1508H6.72426ZM8.23968 14.9162L7.932 15.0764L5.64035 13.8805L5.94803 13.7203L8.23968 14.9162ZM6.00558 14.5276L5.69824 14.6878L4.89434 14.2689L5.20172 14.1086L6.00558 14.5276ZM7.49502 13.751L7.18764 13.9114L6.38376 13.4923L6.69126 13.332L7.49502 13.751Z" fill="#7825E5" stroke="#7825E5" stroke-width="0.174673"/>
<path d="M15.442 15.7801C15.109 16.6566 13.2995 16.7823 11.4004 16.0607C9.5013 15.3392 8.23176 14.0437 8.56476 13.1672C8.89776 12.2907 10.7073 12.165 12.6064 12.8866C14.5055 13.6081 15.775 14.9036 15.442 15.7801Z" fill="url(#paint6_linear_1692_26169)"/>
<path d="M15.4417 15.7809C15.1087 16.6574 13.2991 16.7831 11.4001 16.0615C9.50096 15.34 8.23142 14.0445 8.56442 13.168L8.16242 14.226C7.82942 15.1025 9.09896 16.398 10.9981 17.1196C12.8972 17.8411 14.7067 17.7155 15.0397 16.8389L15.4417 15.7809Z" fill="#7825E5"/>
<path d="M8.461 13.6074C8.51218 13.9656 8.74516 14.3488 9.10162 14.7125C9.62218 15.2437 10.4224 15.7522 11.3783 16.1154C12.3341 16.4785 13.2701 16.6297 14.0121 16.5781C14.52 16.5429 14.9487 16.4112 15.2248 16.1774L14.9827 16.8147C14.8296 17.2174 14.3282 17.4648 13.6017 17.5152C12.8809 17.5653 11.9626 17.4184 11.0193 17.0601C10.0761 16.7017 9.29194 16.2016 8.7862 15.6856C8.27656 15.1655 8.06578 14.6476 8.21884 14.2447L8.461 13.6074ZM12.5842 12.9412C13.5275 13.2997 14.3116 13.7996 14.8173 14.3157C15.327 14.8358 15.5378 15.3538 15.3847 15.7566C15.2316 16.1594 14.7302 16.4068 14.0037 16.4572C13.2828 16.5072 12.3646 16.3604 11.4213 16.002C10.4781 15.6436 9.69394 15.1437 9.1882 14.6276C8.68648 14.1156 8.47444 13.6057 8.61394 13.2057L8.62084 13.1867L8.62828 13.168C8.78962 12.7762 9.28672 12.5357 10.0019 12.4861C10.7226 12.436 11.6409 12.5829 12.5842 12.9412Z" stroke="#601CB9" stroke-width="0.121268"/>
<mask id="mask1_1692_26169" style="mask-type:luminance" maskUnits="userSpaceOnUse" x="9" y="12" width="6" height="4">
<path d="M14.1598 14.2196L10.5488 12.8477L9.88713 14.5892L13.4981 15.9612L14.1598 14.2196Z" fill="white"/>
</mask>
<g mask="url(#mask1_1692_26169)">
<path d="M13.1203 15.4353L12.8959 15.4546L11.3523 13.8235L11.5766 13.8042L13.1203 15.4353ZM11.3221 14.3993L11.098 14.4187L10.5957 13.8885L10.8197 13.8691L11.3221 14.3993ZM12.833 14.2686L12.6089 14.288L12.1066 13.7577L12.3307 13.7383L12.833 14.2686Z" fill="#7825E5" stroke="#7825E5" stroke-width="0.219509"/>
</g>
<path d="M18.918 12.7064C18.831 13.547 17.2839 14.0756 15.4625 13.8871C13.6411 13.6985 12.2351 12.8642 12.3222 12.0236C12.4092 11.1829 13.9563 10.6543 15.7777 10.8428C17.5991 11.0314 19.005 11.8658 18.918 12.7064Z" fill="url(#paint7_linear_1692_26169)"/>
<path d="M18.9176 12.7062C18.8306 13.5469 17.2835 14.0755 15.4621 13.8869C13.6407 13.6984 12.2347 12.864 12.3218 12.0234L12.2167 13.0382C12.1297 13.8788 13.5356 14.7131 15.3571 14.9017C17.1784 15.0902 18.7255 14.5616 18.8125 13.721L18.9176 12.7062Z" fill="#7825E5"/>
<path d="M18.754 13.7128C18.7144 14.0954 18.338 14.4259 17.7174 14.6379C17.1021 14.8482 16.2691 14.933 15.3651 14.8394C14.4611 14.7458 13.6632 14.4922 13.104 14.1603C12.54 13.8257 12.2393 13.4251 12.2789 13.0425L12.3398 12.4539C12.4725 12.7478 12.7613 13.021 13.1472 13.25C13.7246 13.5926 14.5403 13.8503 15.4577 13.9453C16.3751 14.0403 17.2263 13.9551 17.8617 13.738C18.2862 13.5929 18.6248 13.3847 18.815 13.1242L18.754 13.7128ZM15.7728 10.9011C16.6768 10.9947 17.4748 11.2484 18.0339 11.5802C18.598 11.9149 18.8987 12.3155 18.8591 12.6981C18.8195 13.0807 18.4431 13.4112 17.8224 13.6233C17.2071 13.8335 16.3742 13.9183 15.4701 13.8248C14.5662 13.7312 13.7682 13.4775 13.209 13.1457C12.6538 12.8162 12.3537 12.4229 12.3823 12.0457L12.3839 12.0277L12.386 12.0099C12.4353 11.6348 12.8096 11.3114 13.4205 11.1026C14.0358 10.8923 14.8688 10.8075 15.7728 10.9011Z" stroke="#601CB9" stroke-width="0.121268"/>
<mask id="mask2_1692_26169" style="mask-type:luminance" maskUnits="userSpaceOnUse" x="13" y="11" width="5" height="3">
<path d="M17.4398 11.6437L13.9766 11.2852L13.8036 12.9555L17.2669 13.314L17.4398 11.6437Z" fill="white"/>
</mask>
<g mask="url(#mask2_1692_26169)">
<path d="M16.791 12.9409L16.6261 13.0003L14.9272 11.9517L15.0921 11.8923L16.791 12.9409ZM14.9847 12.4552L14.82 12.5145L14.2832 12.1835L14.4479 12.1241L14.9847 12.4552ZM16.2706 11.9911L16.1058 12.0506L15.5691 11.7196L15.7337 11.6602L16.2706 11.9911Z" fill="#7825E5" stroke="#7825E5" stroke-width="0.219509"/>
</g>
<path d="M9.31699 6.35323L10.9698 7.88047C11.0044 7.91245 11.0322 7.94911 11.053 7.98853L11.0611 7.68277C11.0425 7.67065 11.0247 7.65685 11.0079 7.64131L9.57715 6.31921C9.56029 6.30367 9.54512 6.28705 9.53156 6.26953L9.23438 6.29419C9.26365 6.30991 9.29143 6.32959 9.31699 6.35323Z" fill="#C4A6EC"/>
<path d="M11.4693 4.2721L12.9 5.59422L13.1848 5.58297L11.421 3.95312L11.3711 4.20511C11.4061 4.22203 11.4392 4.24435 11.4693 4.2721Z" fill="#C4A5EC"/>
<path d="M8.747 6.37562L8.65586 6.47426C8.50478 6.63776 8.51486 6.89276 8.67836 7.04384L10.3312 8.57114C10.4947 8.72222 10.7497 8.71214 10.9007 8.54864L10.9919 8.44994C11.111 8.32106 11.13 8.1353 11.0526 7.98842C11.0317 7.949 11.004 7.91234 10.9694 7.88036L9.31658 6.35312C9.29102 6.32948 9.26324 6.3098 9.23396 6.29408C9.07592 6.20894 8.8745 6.23768 8.747 6.37562Z" fill="url(#paint8_linear_1692_26169)"/>
<path d="M10.8992 4.29749L9.5543 5.75296C9.41876 5.89964 9.41294 6.11999 9.5312 6.27287C9.54476 6.29039 9.55994 6.30701 9.5768 6.32255L11.0076 7.64465C11.0244 7.66019 11.0422 7.67399 11.0607 7.68611C11.2224 7.79201 11.4416 7.76885 11.5771 7.62215L11.9623 7.23653C11.8444 7.27307 12.32 6.57077 12.6165 6.52205L12.922 6.16667C13.0731 6.00317 13.063 5.74819 12.8995 5.59712L11.4688 4.27501C11.4387 4.24725 11.4056 4.22494 11.3706 4.20801C11.2151 4.13281 11.0225 4.16404 10.8992 4.29749Z" fill="url(#paint9_linear_1692_26169)"/>
<path d="M12.1208 3.32188C11.9573 3.17081 11.7023 3.18087 11.5512 3.34436L11.4031 3.50471C11.2835 3.63414 11.2914 3.83602 11.4209 3.95562L13.1847 5.58547C13.321 5.71136 13.5335 5.70297 13.6594 5.56673L13.7961 5.41872C13.9472 5.25522 13.9371 5.00022 13.7736 4.84915L12.1208 3.32188Z" fill="#D9D9D9"/>
<path d="M12.1208 3.32188C11.9573 3.17081 11.7023 3.18087 11.5512 3.34436L11.4031 3.50471C11.2835 3.63414 11.2914 3.83602 11.4209 3.95562L13.1847 5.58547C13.321 5.71136 13.5335 5.70297 13.6594 5.56673L13.7961 5.41872C13.9472 5.25522 13.9371 5.00022 13.7736 4.84915L12.1208 3.32188Z" fill="url(#paint10_linear_1692_26169)"/>
<path d="M16.7031 9.98897L12.6179 6.51953C12.3214 6.56825 11.8458 7.27055 11.9637 7.23401L15.7806 10.9847C15.8982 11.1002 16.0764 11.1359 16.2209 11.0566C16.5153 10.895 16.6815 10.7175 16.8138 10.4185C16.8803 10.2685 16.8281 10.0952 16.7031 9.98897Z" fill="#D9D9D9"/>
<path d="M16.7031 9.98897L12.6179 6.51953C12.3214 6.56825 11.8458 7.27055 11.9637 7.23401L15.7806 10.9847C15.8982 11.1002 16.0764 11.1359 16.2209 11.0566C16.5153 10.895 16.6815 10.7175 16.8138 10.4185C16.8803 10.2685 16.8281 10.0952 16.7031 9.98897Z" fill="url(#paint11_linear_1692_26169)"/>
<path d="M12.1738 6.9427C12.243 6.85582 12.3244 6.76714 12.4057 6.69766C12.4789 6.63514 12.547 6.5926 12.6032 6.5767C12.6372 6.60556 12.6716 6.63472 12.7063 6.66418L16.6556 10.0182C16.6582 10.0203 16.6603 10.0222 16.6622 10.0238C16.6636 10.025 16.6648 10.026 16.6657 10.0268L16.6694 10.0299C16.78 10.1238 16.8228 10.274 16.7667 10.4006C16.6391 10.6891 16.4807 10.8584 16.1956 11.0149C16.073 11.0822 15.9187 11.0533 15.8149 10.9512L12.0018 7.2043C12.0055 7.1956 12.0107 7.18444 12.0179 7.17082C12.0487 7.11298 12.1043 7.0297 12.1738 6.9427ZM8.69328 6.5119L8.78441 6.41326C8.89589 6.2926 9.07217 6.2674 9.21047 6.34186C9.23603 6.3556 9.26039 6.37282 9.28283 6.39358L10.9357 7.92082C10.966 7.94884 10.9902 7.98088 11.0084 8.01532C11.0761 8.1439 11.0594 8.3065 10.9553 8.41918L10.8641 8.51788C10.732 8.66092 10.5088 8.66974 10.3658 8.53756L8.71295 7.01026C8.56985 6.87808 8.5611 6.65494 8.69328 6.5119ZM11.4401 3.53932L11.5882 3.37898C11.7204 3.23592 11.9436 3.22707 12.0866 3.35926L13.7395 4.88652C13.8825 5.01871 13.8913 5.24188 13.7591 5.38494L13.6223 5.53293C13.5153 5.64873 13.3347 5.65589 13.2189 5.5489L11.455 3.91904L11.4451 3.9094C11.3458 3.80776 11.3425 3.64492 11.4401 3.53932ZM9.5916 5.78715L10.9365 4.33168C11.0444 4.21497 11.2129 4.18756 11.349 4.25337C11.3795 4.26815 11.4086 4.28767 11.4349 4.312L12.8657 5.63412C13.0088 5.76631 13.0175 5.98944 12.8854 6.13246L12.8848 6.13312L12.8842 6.13384L12.8837 6.13444C12.8833 6.13486 12.8828 6.13552 12.8821 6.1363C12.8807 6.13792 12.8786 6.14032 12.8759 6.14338C12.8713 6.14884 12.8647 6.1564 12.8567 6.16582L12.8425 6.18232C12.8243 6.20332 12.8015 6.2299 12.7761 6.25948C12.7184 6.32656 12.6476 6.40888 12.5898 6.47614C12.507 6.49552 12.4201 6.55282 12.3402 6.62104C12.2527 6.6958 12.1669 6.78958 12.0949 6.87982C12.0231 6.96988 11.9635 7.05844 11.929 7.12354C11.9125 7.15444 11.8985 7.18582 11.8949 7.21108C11.8942 7.21564 11.8933 7.22392 11.8945 7.23358L11.5418 7.5865L11.5412 7.58722L11.5405 7.58794C11.4219 7.71628 11.2301 7.73662 11.0886 7.64398C11.0724 7.63336 11.0569 7.62124 11.0421 7.60762L9.61127 6.28552C9.59657 6.2719 9.58325 6.25732 9.57137 6.24202C9.46787 6.10828 9.47304 5.91546 9.5916 5.78715ZM9.36989 6.33682L9.50951 6.32518C9.51995 6.33706 9.53105 6.34858 9.54287 6.35956L10.9737 7.68166C10.9853 7.6924 10.9975 7.70236 11.0099 7.71166L11.0063 7.84906C11.0055 7.84834 11.0048 7.8475 11.004 7.84678L9.36989 6.33682ZM11.5033 4.23799C11.4796 4.21613 11.4542 4.1973 11.4275 4.1814L11.4528 4.0541L13.0612 5.54029L12.9187 5.54591L11.5033 4.23799Z" stroke="url(#paint12_linear_1692_26169)" stroke-width="0.100765"/>
<path d="M13.8941 10.4695L15.6835 12.123C15.721 12.1576 15.751 12.1973 15.7735 12.2399L15.7823 11.909C15.7622 11.8958 15.743 11.8808 15.7247 11.864L14.1757 10.4327C14.1575 10.4159 14.1411 10.3979 14.1264 10.3789L13.8047 10.4056C13.8364 10.4226 13.8665 10.4439 13.8941 10.4695Z" fill="#C4A6EC"/>
<path d="M16.2254 8.21639L17.7744 9.64775L18.0827 9.63557L16.1731 7.87109L16.1191 8.14385C16.157 8.16221 16.1929 8.18633 16.2254 8.21639Z" fill="#C4A5EC"/>
<path d="M13.2771 10.4918L13.1783 10.5986C13.0148 10.7756 13.0257 11.0517 13.2027 11.2153L14.9921 12.8687C15.1691 13.0322 15.4452 13.0213 15.6087 12.8443L15.7075 12.7375C15.8364 12.598 15.8569 12.3968 15.7731 12.2378C15.7506 12.1952 15.7205 12.1555 15.6831 12.1209L13.8937 10.4674C13.8661 10.4419 13.8359 10.4206 13.8043 10.4035C13.6331 10.3114 13.4151 10.3424 13.2771 10.4918Z" fill="url(#paint13_linear_1692_26169)"/>
<path d="M15.6071 8.2379L14.1511 9.81362C14.0043 9.97244 13.998 10.2109 14.126 10.3765C14.1407 10.3954 14.1572 10.4134 14.1754 10.4302L15.7244 11.8616C15.7426 11.8784 15.7618 11.8934 15.7819 11.9065C15.957 12.0211 16.1943 11.9961 16.341 11.8372L16.7581 11.4198C16.6304 11.4593 17.1453 10.699 17.4662 10.6462L17.7971 10.2615C17.9606 10.0845 17.9497 9.80846 17.7727 9.6449L16.2237 8.21354C16.1912 8.18348 16.1553 8.15936 16.1174 8.141C15.9491 8.05958 15.7406 8.09342 15.6071 8.2379Z" fill="url(#paint14_linear_1692_26169)"/>
<path d="M16.9293 7.18225C16.7523 7.01875 16.4763 7.02962 16.3127 7.20662L16.1523 7.3802C16.0228 7.52036 16.0314 7.73894 16.1715 7.86842L18.0811 9.6329C18.2286 9.76922 18.4587 9.76009 18.595 9.61261L18.7431 9.45236C18.9066 9.27536 18.8957 8.9993 18.7187 8.83574L16.9293 7.18225Z" fill="#D9D9D9"/>
<path d="M16.9293 7.18225C16.7523 7.01875 16.4763 7.02962 16.3127 7.20662L16.1523 7.3802C16.0228 7.52036 16.0314 7.73894 16.1715 7.86842L18.0811 9.6329C18.2286 9.76922 18.4587 9.76009 18.595 9.61261L18.7431 9.45236C18.9066 9.27536 18.8957 8.9993 18.7187 8.83574L16.9293 7.18225Z" fill="url(#paint15_linear_1692_26169)"/>
<path d="M21.8891 14.4046L17.4663 10.6484C17.1455 10.7012 16.6305 11.4615 16.7582 11.422L20.8904 15.4825C21.0177 15.6076 21.2106 15.6463 21.3671 15.5603C21.6858 15.3854 21.8658 15.1933 22.0091 14.8696C22.0809 14.7071 22.0245 14.5195 21.8891 14.4046Z" fill="#D9D9D9"/>
<path d="M21.8891 14.4046L17.4663 10.6484C17.1455 10.7012 16.6305 11.4615 16.7582 11.422L20.8904 15.4825C21.0177 15.6076 21.2106 15.6463 21.3671 15.5603C21.6858 15.3854 21.8658 15.1933 22.0091 14.8696C22.0809 14.7071 22.0245 14.5195 21.8891 14.4046Z" fill="url(#paint16_linear_1692_26169)"/>
<path d="M16.9866 11.102C17.0616 11.0079 17.1497 10.9119 17.2377 10.8367C17.317 10.769 17.3908 10.7229 17.4516 10.7057L21.8538 14.4443C21.9735 14.5459 22.0198 14.7084 21.9591 14.8456C21.8208 15.1579 21.6495 15.3413 21.3408 15.5106C21.2081 15.5835 21.041 15.5522 20.9285 15.4417L16.8005 11.3853C16.8044 11.3759 16.8101 11.3638 16.818 11.3489C16.8512 11.2863 16.9115 11.1962 16.9866 11.102ZM13.2186 10.6356L13.3173 10.5288C13.438 10.3982 13.6288 10.3709 13.7786 10.4514C13.8062 10.4664 13.8326 10.485 13.8569 10.5075L15.6462 12.161C15.6791 12.1913 15.7053 12.226 15.725 12.2633C15.7983 12.4025 15.7803 12.5784 15.6675 12.7005L15.5688 12.8073C15.4257 12.9622 15.1842 12.9717 15.0293 12.8286L13.2399 11.1752C13.085 11.0321 13.0755 10.7905 13.2186 10.6356ZM16.1924 7.41736L16.3527 7.24378C16.4959 7.08892 16.7374 7.07938 16.8923 7.22248L18.6817 8.87596C18.8366 9.01906 18.8461 9.26062 18.703 9.41548L18.5549 9.57574C18.4391 9.70114 18.2435 9.70882 18.1181 9.59302L16.2086 7.82848L16.1978 7.81798C16.0902 7.70794 16.0867 7.53172 16.1924 7.41736ZM14.1912 9.85096L15.6472 8.27524C15.764 8.14888 15.9464 8.11918 16.0938 8.19046C16.1268 8.20642 16.1583 8.22754 16.1868 8.25388L17.7358 9.68524C17.8907 9.82834 17.9002 10.07 17.7571 10.2249L17.7555 10.2266L17.7539 10.2285C17.7537 10.2286 17.7536 10.2288 17.7535 10.229C17.7531 10.2293 17.7528 10.2298 17.7524 10.2303L17.7299 10.2563C17.7275 10.2591 17.7249 10.2621 17.7222 10.2653C17.7013 10.2896 17.6721 10.3236 17.6388 10.3623C17.5763 10.4349 17.4996 10.5241 17.4371 10.5969C17.3474 10.6179 17.2533 10.6799 17.1669 10.7538C17.0721 10.8347 16.9792 10.9362 16.9013 11.0339C16.8236 11.1314 16.759 11.2273 16.7216 11.2977C16.7038 11.3312 16.6887 11.3652 16.6847 11.3925C16.684 11.3975 16.683 11.4064 16.6842 11.4168L16.3025 11.799L16.3011 11.8005C16.1727 11.9394 15.965 11.9615 15.8119 11.8612C15.7943 11.8497 15.7775 11.8366 15.7615 11.8218L14.2125 10.3905C14.1965 10.3758 14.1821 10.3599 14.1693 10.3434C14.0573 10.1986 14.0628 9.98986 14.1912 9.85096ZM13.9511 10.446L14.1024 10.4335C14.1137 10.4463 14.1257 10.4588 14.1384 10.4706L15.6875 11.9019C15.7001 11.9136 15.7132 11.9244 15.7266 11.9345L15.7227 12.0832C15.7219 12.0824 15.7211 12.0816 15.7203 12.0808L13.9511 10.446ZM16.2608 8.17378C16.2352 8.15014 16.2077 8.1298 16.1788 8.11258L16.2061 7.97476L17.9474 9.58372L17.7933 9.58984L16.2608 8.17378Z" stroke="url(#paint17_linear_1692_26169)" stroke-width="0.10909"/>
<path d="M2.73456 9.29626L4.41818 10.8519C4.45342 10.8845 4.48167 10.9218 4.50284 10.962L4.51109 10.6506C4.49221 10.6382 4.4741 10.6241 4.45698 10.6083L2.99952 9.26158C2.98239 9.24574 2.96693 9.22882 2.95311 9.21094L2.65039 9.23608C2.68022 9.25216 2.70852 9.2722 2.73456 9.29626Z" fill="#C4A6EC"/>
<path d="M4.92616 7.17646L6.3836 8.52322L6.6737 8.51176L4.87702 6.85156L4.82617 7.10824C4.86182 7.12546 4.89557 7.1482 4.92616 7.17646Z" fill="#C4A5EC"/>
<path d="M2.15503 9.3194L2.06215 9.41996C1.90827 9.58646 1.91852 9.84626 2.08506 10.0001L3.76868 11.5558C3.93522 11.7097 4.19497 11.6995 4.34886 11.5329L4.44174 11.4324C4.56306 11.3011 4.58236 11.1119 4.50349 10.9623C4.48233 10.9221 4.45408 10.8848 4.41883 10.8522L2.73522 9.29654C2.70918 9.27248 2.68087 9.25244 2.65105 9.23636C2.49006 9.14966 2.28487 9.17894 2.15503 9.3194Z" fill="url(#paint18_linear_1692_26169)"/>
<path d="M4.34619 7.19835L2.97622 8.68095C2.83815 8.83035 2.83221 9.05481 2.95272 9.21051C2.96653 9.22839 2.982 9.24531 2.99912 9.26115L4.45658 10.6079C4.47371 10.6237 4.49182 10.6378 4.5107 10.6501C4.67542 10.758 4.89871 10.7344 5.03677 10.585L5.42915 10.1922C5.309 10.2294 5.79348 9.51399 6.09539 9.46437L6.40673 9.10239C6.56063 8.93583 6.55037 8.67609 6.38381 8.52219L4.92637 7.17543C4.89578 7.14717 4.86203 7.12443 4.82638 7.10721C4.66796 7.03059 4.47181 7.06239 4.34619 7.19835Z" fill="url(#paint19_linear_1692_26169)"/>
<path d="M5.59086 6.20669C5.42432 6.05279 5.16457 6.06305 5.01068 6.22961L4.85975 6.39293C4.73792 6.52475 4.74604 6.73043 4.87789 6.85223L6.67457 8.51243C6.81335 8.64071 7.02983 8.63213 7.15805 8.49335L7.29737 8.34257C7.45127 8.17607 7.44101 7.91627 7.27445 7.76243L5.59086 6.20669Z" fill="#D9D9D9"/>
<path d="M5.59086 6.20669C5.42432 6.05279 5.16457 6.06305 5.01068 6.22961L4.85975 6.39293C4.73792 6.52475 4.74604 6.73043 4.87789 6.85223L6.67457 8.51243C6.81335 8.64071 7.02983 8.63213 7.15805 8.49335L7.29737 8.34257C7.45127 8.17607 7.44101 7.91627 7.27445 7.76243L5.59086 6.20669Z" fill="url(#paint20_linear_1692_26169)"/>
<path d="M10.2566 12.999L6.09517 9.46484C5.79325 9.51446 5.30877 10.2298 5.42892 10.1926L9.31687 14.0132C9.43669 14.1309 9.61819 14.1672 9.76543 14.0864C10.0653 13.9219 10.2346 13.741 10.3694 13.4364C10.437 13.2837 10.384 13.1071 10.2566 12.999Z" fill="#D9D9D9"/>
<path d="M10.2566 12.999L6.09517 9.46484C5.79325 9.51446 5.30877 10.2298 5.42892 10.1926L9.31687 14.0132C9.43669 14.1309 9.61819 14.1672 9.76543 14.0864C10.0653 13.9219 10.2346 13.741 10.3694 13.4364C10.437 13.2837 10.384 13.1071 10.2566 12.999Z" fill="url(#paint21_linear_1692_26169)"/>
<path d="M5.64462 9.89398C5.71517 9.80548 5.79804 9.71518 5.88086 9.64444C5.95543 9.58072 6.02492 9.53734 6.0821 9.5212L6.1805 9.60478C6.97406 10.2787 7.95554 11.1122 8.75282 11.7893C9.17138 12.1448 9.53924 12.4571 9.8024 12.6806C9.93398 12.7923 10.0394 12.8819 10.1119 12.9435C10.1482 12.9743 10.1762 12.9981 10.1952 13.0142C10.2047 13.0223 10.2119 13.0284 10.2168 13.0325C10.2181 13.0337 10.2193 13.0347 10.2204 13.0356L10.2241 13.0387C10.3367 13.1344 10.3803 13.2873 10.3232 13.4163C10.1931 13.7102 10.0318 13.8827 9.74144 14.0421C9.61658 14.1106 9.45938 14.0813 9.35354 13.9773L5.46951 10.1606C5.47324 10.1517 5.47854 10.1403 5.48594 10.1264C5.51723 10.0674 5.57393 9.9826 5.64462 9.89398ZM2.0993 9.4552L2.19219 9.3547C2.30575 9.23182 2.48532 9.20614 2.62619 9.28198C2.65224 9.29602 2.67701 9.31354 2.69984 9.33466L4.38347 10.8904C4.41437 10.919 4.43906 10.9516 4.45755 10.9867C4.52658 11.1177 4.5096 11.2832 4.40351 11.398L4.31062 11.4986C4.17597 11.6442 3.94869 11.6532 3.80298 11.5186L2.11935 9.96286C1.97363 9.82822 1.96466 9.60094 2.0993 9.4552ZM4.89731 6.42718L5.04822 6.26386C5.18287 6.11818 5.41014 6.10918 5.55586 6.24382L7.2395 7.79956C7.38518 7.9342 7.39418 8.16148 7.25954 8.30722L7.12022 8.45794C7.01126 8.5759 6.82724 8.58322 6.70928 8.47426L4.91254 6.814C4.80152 6.7114 4.79472 6.53824 4.89731 6.42718ZM3.01438 8.7169L4.38437 7.2343C4.49424 7.11544 4.66589 7.08754 4.80453 7.15456C4.83568 7.16962 4.86523 7.18954 4.89206 7.21432L6.34952 8.56102C6.4952 8.69572 6.5042 8.92294 6.36956 9.06868L6.3689 9.0694L6.36836 9.07006L6.36776 9.07072C6.3674 9.07114 6.36686 9.0718 6.3662 9.07258C6.36578 9.07306 6.3653 9.07354 6.36482 9.07414L6.35498 9.08554C6.35012 9.09124 6.34394 9.09844 6.33674 9.10678C6.32042 9.12574 6.2987 9.151 6.27392 9.17986L6.06842 9.41878C5.98412 9.43858 5.89554 9.49696 5.81421 9.56644C5.72503 9.64258 5.63766 9.73804 5.56439 9.82996C5.49124 9.9217 5.43051 10.0119 5.39531 10.0782C5.37857 10.1097 5.36433 10.1417 5.3606 10.1674C5.35992 10.1721 5.35901 10.1804 5.36013 10.1903L5.00099 10.5498L5.00023 10.5506L4.99955 10.5513C4.87878 10.682 4.68341 10.7027 4.53931 10.6083C4.5228 10.5975 4.50693 10.5852 4.49191 10.5713L3.03447 9.22462C3.01944 9.21076 3.0059 9.19588 2.99382 9.18028C2.88841 9.04408 2.89362 8.84764 3.01438 8.7169ZM2.78853 9.27682L2.93082 9.265C2.94144 9.27712 2.95273 9.28888 2.9648 9.29998L4.42224 10.6467C4.4341 10.6577 4.44648 10.6679 4.45915 10.6773L4.45542 10.8173C4.45464 10.8165 4.45393 10.8157 4.45314 10.815L2.78853 9.27682ZM4.96173 7.1389C4.93762 7.11664 4.91166 7.09744 4.88449 7.08124L4.91026 6.95158L6.5486 8.4655L6.40352 8.4712L4.96173 7.1389Z" stroke="url(#paint22_linear_1692_26169)" stroke-width="0.102643"/>
<path d="M8.0157 11.7124L10.1267 13.6631C10.171 13.7039 10.2064 13.7507 10.2329 13.801L10.2433 13.4106C10.2196 13.3951 10.1969 13.3774 10.1754 13.3576L8.34792 11.6689C8.32644 11.6491 8.30706 11.6278 8.28972 11.6055L7.91016 11.637C7.94754 11.6571 7.98306 11.6822 8.0157 11.7124Z" fill="#C4A6EC"/>
<path d="M10.766 9.05199L12.5935 10.7406L12.9572 10.7263L10.7044 8.64453L10.6406 8.96637C10.6853 8.98803 10.7276 9.01653 10.766 9.05199Z" fill="#C4A5EC"/>
<path d="M7.28834 11.7397L7.17188 11.8657C6.97892 12.0745 6.99176 12.4002 7.20056 12.5932L9.31166 14.5439C9.52046 14.7368 9.8462 14.7239 10.0392 14.5151L10.1556 14.3891C10.3077 14.2245 10.3319 13.9872 10.233 13.7996C10.2065 13.7492 10.1711 13.7024 10.1269 13.6616L8.01584 11.7109C7.9832 11.6807 7.94768 11.6556 7.9103 11.6355C7.7084 11.5268 7.45112 11.5634 7.28834 11.7397Z" fill="url(#paint23_linear_1692_26169)"/>
<path d="M10.0381 9.08338L8.32029 10.9424C8.14719 11.1297 8.13975 11.4112 8.29083 11.6064C8.30817 11.6288 8.32755 11.6501 8.34903 11.6699L10.1765 13.3586C10.198 13.3784 10.2207 13.3961 10.2444 13.4115C10.4509 13.5468 10.7308 13.5172 10.904 13.3298L11.396 12.8373C11.2453 12.884 11.8528 11.987 12.2314 11.9247L12.6217 11.4708C12.8147 11.262 12.8019 10.9363 12.5931 10.7433L10.7656 9.0547C10.7272 9.01924 10.6849 8.99074 10.6402 8.96908C10.4415 8.87308 10.1956 8.91292 10.0381 9.08338Z" fill="url(#paint24_linear_1692_26169)"/>
<path d="M11.5972 7.83594C11.3884 7.64298 11.0627 7.65582 10.8697 7.86462L10.6805 8.06946C10.5277 8.23476 10.5379 8.49258 10.7032 8.64534L12.9561 10.7271C13.1301 10.8879 13.4015 10.8772 13.5623 10.7032L13.737 10.5141C13.93 10.3053 13.9171 9.97956 13.7083 9.7866L11.5972 7.83594Z" fill="#D9D9D9"/>
<path d="M11.5972 7.83594C11.3884 7.64298 11.0627 7.65582 10.8697 7.86462L10.6805 8.06946C10.5277 8.23476 10.5379 8.49258 10.7032 8.64534L12.9561 10.7271C13.1301 10.8879 13.4015 10.8772 13.5623 10.7032L13.737 10.5141C13.93 10.3053 13.9171 9.97956 13.7083 9.7866L11.5972 7.83594Z" fill="url(#paint25_linear_1692_26169)"/>
<path d="M17.448 16.3532L12.2301 11.9219C11.8515 11.9841 11.244 12.8811 11.3946 12.8345L16.2696 17.625C16.4199 17.7726 16.6474 17.8181 16.8321 17.7168C17.2081 17.5105 17.4204 17.2837 17.5894 16.9018C17.6742 16.7102 17.6076 16.4888 17.448 16.3532Z" fill="#D9D9D9"/>
<path d="M17.448 16.3532L12.2301 11.9219C11.8515 11.9841 11.244 12.8811 11.3946 12.8345L16.2696 17.625C16.4199 17.7726 16.6474 17.8181 16.8321 17.7168C17.2081 17.5105 17.4204 17.2837 17.5894 16.9018C17.6742 16.7102 17.6076 16.4888 17.448 16.3532Z" fill="url(#paint26_linear_1692_26169)"/>
<path d="M11.6647 12.4622C11.7532 12.3512 11.8571 12.2379 11.9609 12.1493C12.0544 12.0694 12.1416 12.015 12.2133 11.9948L12.2524 12.0279C13.2615 12.8849 14.5339 13.9655 15.562 14.8386C16.0869 15.2843 16.5481 15.6761 16.8781 15.9563C17.043 16.0964 17.1753 16.2087 17.2662 16.2859C17.3116 16.3245 17.3468 16.3544 17.3706 16.3746C17.38 16.3826 17.3877 16.3891 17.3935 16.394L17.4068 16.4053C17.548 16.5252 17.6027 16.717 17.5311 16.8788C17.368 17.2472 17.1658 17.4636 16.8017 17.6634C16.6451 17.7494 16.4479 17.7125 16.3153 17.5821L11.4451 12.7964C11.4498 12.7853 11.4564 12.771 11.4657 12.7535C11.5049 12.6796 11.5761 12.5733 11.6647 12.4622ZM7.21922 11.912L7.33568 11.7859C7.47812 11.6318 7.70324 11.5997 7.87988 11.6948C7.91252 11.7123 7.94366 11.7343 7.97228 11.7608L10.0834 13.7115C10.1221 13.7473 10.153 13.7883 10.1762 13.8323C10.2628 13.9965 10.2415 14.2041 10.1085 14.348L9.992 14.4741C9.82316 14.6568 9.53816 14.6681 9.35546 14.4992L7.24436 12.5485C7.06166 12.3797 7.05038 12.0947 7.21922 11.912ZM10.7276 8.11516L10.9168 7.91038C11.0857 7.72768 11.3707 7.7164 11.5534 7.88524L13.6645 9.83596C13.8472 10.0048 13.8584 10.2898 13.6896 10.4725L13.5149 10.6616C13.3782 10.8095 13.1475 10.8186 12.9996 10.6819L10.7467 8.6002L10.7341 8.58784C10.6071 8.45806 10.603 8.25004 10.7276 8.11516ZM8.36672 10.9862L10.0845 9.12724C10.2222 8.9782 10.4374 8.94316 10.6113 9.02722C10.6504 9.04612 10.6874 9.07102 10.7211 9.1021L12.5485 10.7908C12.7312 10.9596 12.7425 11.2446 12.5737 11.4273L12.5721 11.429L12.532 11.4757L12.5326 11.475C12.5079 11.5037 12.4734 11.5439 12.4341 11.5895C12.3948 11.6352 12.3507 11.6865 12.3069 11.7375L12.1961 11.8663C12.0904 11.8911 11.9793 11.9642 11.8773 12.0513C11.7655 12.1469 11.6559 12.2667 11.5641 12.3819C11.4723 12.497 11.3962 12.61 11.352 12.6932C11.331 12.7326 11.3133 12.7728 11.3086 12.805C11.3077 12.8108 11.3065 12.8213 11.308 12.8336L10.8576 13.2845L10.8567 13.2854L10.8559 13.2863C10.7044 13.4502 10.4595 13.4762 10.2787 13.358C10.258 13.3444 10.2382 13.3289 10.2193 13.3115L8.39186 11.6228C8.37302 11.6054 8.35598 11.5868 8.34086 11.5672C8.20868 11.3964 8.21528 11.1501 8.36672 10.9862ZM8.08346 11.6883L8.26184 11.6735C8.27516 11.6887 8.28938 11.7033 8.3045 11.7173L10.132 13.406C10.1469 13.4197 10.1623 13.4325 10.1782 13.4444L10.1736 13.6199C10.1726 13.6189 10.1717 13.6179 10.1707 13.617L8.08346 11.6883ZM10.8084 9.0076C10.7782 8.9797 10.7457 8.95564 10.7116 8.93536L10.7439 8.77276L12.7981 10.671L12.6162 10.6782L10.8084 9.0076Z" stroke="url(#paint27_linear_1692_26169)" stroke-width="0.128702"/>
<defs>
<radialGradient id="paint0_radial_1692_26169" cx="0" cy="0" r="1" gradientUnits="userSpaceOnUse" gradientTransform="translate(11.85 12.0212) rotate(90) scale(10.0991 10.318)">
<stop stop-color="#C1A0EC" stop-opacity="0.59"/>
<stop offset="1" stop-color="#9B4CFF" stop-opacity="0"/>
</radialGradient>
<linearGradient id="paint1_linear_1692_26169" x1="15.9627" y1="11.1134" x2="15.6947" y2="14.7295" gradientUnits="userSpaceOnUse">
<stop offset="0.394231" stop-color="#C5A7EC"/>
<stop offset="1" stop-color="#632EAA"/>
</linearGradient>
<linearGradient id="paint2_linear_1692_26169" x1="9.52298" y1="7.85429" x2="9.51296" y2="12.0007" gradientUnits="userSpaceOnUse">
<stop offset="0.394231" stop-color="#C5A7EC"/>
<stop offset="1" stop-color="#632EAA"/>
</linearGradient>
<linearGradient id="paint3_linear_1692_26169" x1="1.7832" y1="13.1273" x2="6.16621" y2="13.5779" gradientUnits="userSpaceOnUse">
<stop stop-color="#7825E5"/>
<stop offset="0.530754" stop-color="#B583F6"/>
</linearGradient>
<linearGradient id="paint4_linear_1692_26169" x1="1.7832" y1="13.1273" x2="6.23138" y2="13.1273" gradientUnits="userSpaceOnUse">
<stop stop-color="#7825E5"/>
<stop offset="0.413462" stop-color="#B583F6"/>
</linearGradient>
<linearGradient id="paint5_linear_1692_26169" x1="6.43353" y1="12.8867" x2="6.43353" y2="16.9852" gradientUnits="userSpaceOnUse">
<stop offset="0.394231" stop-color="#C5A7EC"/>
<stop offset="1" stop-color="#632EAA"/>
</linearGradient>
<linearGradient id="paint6_linear_1692_26169" x1="12.6064" y1="12.8866" x2="10.9984" y2="17.1188" gradientUnits="userSpaceOnUse">
<stop offset="0.394231" stop-color="#C5A7EC"/>
<stop offset="1" stop-color="#632EAA"/>
</linearGradient>
<linearGradient id="paint7_linear_1692_26169" x1="15.7777" y1="10.8428" x2="15.3575" y2="14.9018" gradientUnits="userSpaceOnUse">
<stop offset="0.394231" stop-color="#C5A7EC"/>
<stop offset="1" stop-color="#632EAA"/>
</linearGradient>
<linearGradient id="paint8_linear_1692_26169" x1="10.1034" y1="4.9078" x2="16.5262" y2="10.8428" gradientUnits="userSpaceOnUse">
<stop stop-color="#AC8AD9"/>
<stop offset="0.25" stop-color="#7825E5"/>
</linearGradient>
<linearGradient id="paint9_linear_1692_26169" x1="10.1034" y1="4.91125" x2="16.5263" y2="10.8463" gradientUnits="userSpaceOnUse">
<stop stop-color="#CBB1EC"/>
<stop offset="0.846154" stop-color="#7825E5"/>
</linearGradient>
<linearGradient id="paint10_linear_1692_26169" x1="10.1038" y1="4.91085" x2="16.5267" y2="10.8458" gradientUnits="userSpaceOnUse">
<stop stop-color="#AC8AD9"/>
<stop offset="0.25" stop-color="#7825E5"/>
</linearGradient>
<linearGradient id="paint11_linear_1692_26169" x1="10.1048" y1="4.90873" x2="16.5277" y2="10.8437" gradientUnits="userSpaceOnUse">
<stop stop-color="#6905ED"/>
<stop offset="1" stop-color="#CBB1EC"/>
</linearGradient>
<linearGradient id="paint12_linear_1692_26169" x1="10.1038" y1="4.91124" x2="16.5266" y2="10.8462" gradientUnits="userSpaceOnUse">
<stop stop-color="#7825E5"/>
<stop offset="0.413462" stop-color="#B583F6"/>
</linearGradient>
<linearGradient id="paint13_linear_1692_26169" x1="14.7455" y1="8.90267" x2="21.699" y2="15.328" gradientUnits="userSpaceOnUse">
<stop stop-color="#AC8AD9"/>
<stop offset="0.25" stop-color="#7825E5"/>
</linearGradient>
<linearGradient id="paint14_linear_1692_26169" x1="14.7455" y1="8.90234" x2="21.6991" y2="15.3277" gradientUnits="userSpaceOnUse">
<stop stop-color="#CBB1EC"/>
<stop offset="0.846154" stop-color="#7825E5"/>
</linearGradient>
<linearGradient id="paint15_linear_1692_26169" x1="14.7456" y1="8.90252" x2="21.6992" y2="15.3279" gradientUnits="userSpaceOnUse">
<stop stop-color="#AC8AD9"/>
<stop offset="0.25" stop-color="#7825E5"/>
</linearGradient>
<linearGradient id="paint16_linear_1692_26169" x1="14.7457" y1="8.90454" x2="21.6992" y2="15.3299" gradientUnits="userSpaceOnUse">
<stop stop-color="#6905ED"/>
<stop offset="1" stop-color="#CBB1EC"/>
</linearGradient>
<linearGradient id="paint17_linear_1692_26169" x1="14.7456" y1="8.90266" x2="21.6992" y2="15.328" gradientUnits="userSpaceOnUse">
<stop stop-color="#7825E5"/>
<stop offset="0.413462" stop-color="#B583F6"/>
</linearGradient>
<linearGradient id="paint18_linear_1692_26169" x1="3.53661" y1="7.82426" x2="10.0792" y2="13.8699" gradientUnits="userSpaceOnUse">
<stop stop-color="#AC8AD9"/>
<stop offset="0.25" stop-color="#7825E5"/>
</linearGradient>
<linearGradient id="paint19_linear_1692_26169" x1="3.53556" y1="7.82355" x2="10.0781" y2="13.8691" gradientUnits="userSpaceOnUse">
<stop stop-color="#CBB1EC"/>
<stop offset="0.846154" stop-color="#7825E5"/>
</linearGradient>
<linearGradient id="paint20_linear_1692_26169" x1="3.53622" y1="7.82525" x2="10.0788" y2="13.8709" gradientUnits="userSpaceOnUse">
<stop stop-color="#AC8AD9"/>
<stop offset="0.25" stop-color="#7825E5"/>
</linearGradient>
<linearGradient id="paint21_linear_1692_26169" x1="3.53533" y1="7.82402" x2="10.0779" y2="13.8696" gradientUnits="userSpaceOnUse">
<stop stop-color="#6905ED"/>
<stop offset="1" stop-color="#CBB1EC"/>
</linearGradient>
<linearGradient id="paint22_linear_1692_26169" x1="3.53607" y1="7.8247" x2="10.0786" y2="13.8703" gradientUnits="userSpaceOnUse">
<stop stop-color="#7825E5"/>
<stop offset="0.413462" stop-color="#B583F6"/>
</linearGradient>
<linearGradient id="paint23_linear_1692_26169" x1="9.02066" y1="9.8649" x2="17.2243" y2="17.4454" gradientUnits="userSpaceOnUse">
<stop stop-color="#AC8AD9"/>
<stop offset="0.25" stop-color="#7825E5"/>
</linearGradient>
<linearGradient id="paint24_linear_1692_26169" x1="9.02163" y1="9.86734" x2="17.2252" y2="17.4478" gradientUnits="userSpaceOnUse">
<stop stop-color="#CBB1EC"/>
<stop offset="0.846154" stop-color="#7825E5"/>
</linearGradient>
<linearGradient id="paint25_linear_1692_26169" x1="9.02091" y1="9.86544" x2="17.2245" y2="17.4459" gradientUnits="userSpaceOnUse">
<stop stop-color="#AC8AD9"/>
<stop offset="0.25" stop-color="#7825E5"/>
</linearGradient>
<linearGradient id="paint26_linear_1692_26169" x1="9.02024" y1="9.86447" x2="17.2239" y2="17.4449" gradientUnits="userSpaceOnUse">
<stop stop-color="#6905ED"/>
<stop offset="1" stop-color="#CBB1EC"/>
</linearGradient>
<linearGradient id="paint27_linear_1692_26169" x1="9.02078" y1="9.86752" x2="17.2244" y2="17.448" gradientUnits="userSpaceOnUse">
<stop stop-color="#7825E5"/>
<stop offset="0.413462" stop-color="#B583F6"/>
</linearGradient>
</defs>
</svg>
