<svg width="24" height="24" viewBox="0 0 24 24" fill="none" xmlns="http://www.w3.org/2000/svg">
<path d="M15.3829 10.8412C15.4439 10.6737 15.6291 10.5875 15.7966 10.6485L18.0923 11.4852C18.2598 11.5462 18.3461 11.7314 18.285 11.8988C18.224 12.0663 18.0387 12.1526 17.8713 12.0916L15.5756 11.2549C15.4082 11.1939 15.3218 11.0087 15.3829 10.8412Z" fill="#7A24E7"/>
<path d="M14.9932 10.6989C14.9321 10.8664 14.7469 10.9527 14.5795 10.8916C14.4121 10.8306 14.3257 10.6454 14.3868 10.4779C14.4478 10.3105 14.633 10.2242 14.8005 10.2852C14.968 10.3463 15.0542 10.5315 14.9932 10.6989Z" fill="#7A24E7"/>
<path d="M15.7305 9.89201C15.7916 9.72449 15.9768 9.63825 16.1443 9.69929L18.44 10.5359C18.6074 10.597 18.6937 10.7822 18.6327 10.9497C18.5717 11.1171 18.3865 11.2034 18.2189 11.1423L15.9233 10.3057C15.7558 10.2447 15.6695 10.0595 15.7305 9.89201Z" fill="#7A24E7"/>
<path d="M15.3408 9.74976C15.2798 9.9172 15.0946 10.0034 14.9272 9.94248C14.7597 9.88144 14.6734 9.69616 14.7344 9.52872C14.7955 9.36128 14.9807 9.27496 15.1482 9.336C15.3156 9.39704 15.4019 9.58232 15.3408 9.74976Z" fill="#7A24E7"/>
<path d="M16.1094 8.84904C16.1705 8.6816 16.3557 8.59528 16.5231 8.65632L18.8189 9.49304C18.9863 9.554 19.0726 9.73928 19.0116 9.90672C18.9506 10.0742 18.7653 10.1605 18.5978 10.0994L16.3022 9.26272C16.1347 9.20176 16.0484 9.01648 16.1094 8.84904Z" fill="#7A24E7"/>
<path d="M15.7197 8.70672C15.6587 8.87416 15.4735 8.96048 15.3061 8.89944C15.1386 8.8384 15.0523 8.6532 15.1133 8.48576C15.1744 8.31824 15.3596 8.232 15.527 8.29304C15.6945 8.35408 15.7808 8.53928 15.7197 8.70672Z" fill="#7A24E7"/>
<path d="M16.0987 7.66768C16.0376 7.83514 15.8524 7.92141 15.685 7.86039C15.5175 7.79936 15.4312 7.61413 15.4923 7.44668C15.5533 7.27922 15.7385 7.19294 15.9059 7.25397C16.0734 7.315 16.1597 7.50023 16.0987 7.66768Z" fill="#7A24E7"/>
<path d="M16.4883 7.80996C16.5494 7.6425 16.7346 7.55622 16.902 7.61725L19.1978 8.45392C19.3652 8.51496 19.4515 8.70016 19.3904 8.8676C19.3295 9.03512 19.1442 9.12136 18.9767 9.06032L16.6811 8.22368C16.5136 8.16264 16.4273 7.97741 16.4883 7.80996Z" fill="#7A24E7"/>
<path fill-rule="evenodd" clip-rule="evenodd" d="M21.0671 7.56593C21.2065 7.18317 21.0093 6.7598 20.6266 6.6203L16.0785 4.96276C15.6957 4.82326 15.2724 5.02047 15.1329 5.40323L14.975 5.83638L20.9092 7.99908L21.0671 7.56593ZM15.7967 10.6502L18.0925 11.4868C18.2599 11.5479 18.3462 11.7331 18.2852 11.9005C18.2241 12.068 18.0389 12.1543 17.8714 12.0932L15.5757 11.2566C15.4083 11.1956 15.322 11.0104 15.383 10.8428C15.4441 10.6754 15.6293 10.5892 15.7967 10.6502ZM14.9932 10.7008C14.9321 10.8683 14.7469 10.9545 14.5795 10.8935C14.4121 10.8324 14.3257 10.6472 14.3868 10.4798C14.4478 10.3124 14.633 10.226 14.8005 10.2871C14.968 10.3481 15.0542 10.5333 14.9932 10.7008ZM16.1441 9.69723L18.4397 10.5339C18.6072 10.5949 18.6935 10.7801 18.6325 10.9476C18.5714 11.1151 18.3862 11.2013 18.2187 11.1403L15.923 10.3036C15.7556 10.2426 15.6693 10.0574 15.7303 9.88995C15.7913 9.72243 15.9765 9.63619 16.1441 9.69723ZM15.3405 9.74787C15.2794 9.91531 15.0942 10.0016 14.9268 9.94059C14.7593 9.87955 14.673 9.69427 14.7341 9.52683C14.7951 9.35939 14.9803 9.27307 15.1478 9.33411C15.3153 9.39515 15.4015 9.58043 15.3405 9.74787ZM16.5229 8.65763L18.8186 9.49435C18.9861 9.55531 19.0724 9.74059 19.0113 9.90803C18.9503 10.0755 18.765 10.1618 18.5976 10.1008L16.3019 9.26403C16.1345 9.20307 16.0481 9.01779 16.1092 8.85035C16.1702 8.68291 16.3554 8.59659 16.5229 8.65763ZM15.7193 8.70827C15.6583 8.87571 15.4731 8.96203 15.3057 8.90099C15.1382 8.83995 15.0519 8.65475 15.1129 8.48731C15.174 8.31979 15.3592 8.23355 15.5266 8.29459C15.6941 8.35563 15.7804 8.54083 15.7193 8.70827ZM16.0982 7.66872C16.0372 7.83618 15.852 7.92245 15.6845 7.86142C15.517 7.80039 15.4308 7.61517 15.4918 7.44771C15.5529 7.28026 15.7381 7.19398 15.9055 7.25501C16.0729 7.31604 16.1593 7.50126 16.0982 7.66872ZM16.9017 7.61809L19.1975 8.45475C19.3649 8.51579 19.4512 8.70099 19.3901 8.86843C19.3292 9.03595 19.1439 9.12219 18.9765 9.06115L16.6808 8.22451C16.5133 8.16347 16.427 7.97825 16.4881 7.81079C16.5491 7.64334 16.7343 7.55706 16.9017 7.61809Z" fill="#7A24E7"/>
<path fill-rule="evenodd" clip-rule="evenodd" d="M13.0331 11.1637C12.8936 11.5465 13.0908 11.9698 13.4736 12.1093L18.0216 13.7669C18.4044 13.9064 18.8277 13.7092 18.9672 13.3264L20.9089 7.99863L14.9748 5.83594L13.0331 11.1637ZM18.0922 11.4864L15.7964 10.6497C15.629 10.5887 15.4438 10.6749 15.3828 10.8424C15.3217 11.0099 15.408 11.1951 15.5755 11.2561L17.8712 12.0928C18.0386 12.1538 18.2239 12.0675 18.2849 11.9001C18.346 11.7326 18.2596 11.5474 18.0922 11.4864ZM14.5792 10.893C14.7467 10.9541 14.9319 10.8678 14.9929 10.7003C15.054 10.5329 14.9677 10.3477 14.8002 10.2866C14.6328 10.2256 14.4476 10.3119 14.3865 10.4793C14.3255 10.6468 14.4118 10.832 14.5792 10.893ZM18.4395 10.5334L16.1438 9.69679C15.9763 9.63575 15.7911 9.72199 15.73 9.88951C15.669 10.0569 15.7553 10.2421 15.9228 10.3032L18.2184 11.1398C18.386 11.2009 18.5712 11.1146 18.6322 10.9472C18.6932 10.7797 18.6069 10.5945 18.4395 10.5334ZM14.9265 9.94015C15.094 10.0011 15.2792 9.91487 15.3402 9.74743C15.4012 9.57999 15.315 9.39471 15.1476 9.33367C14.98 9.27263 14.7948 9.35895 14.7338 9.52639C14.6728 9.69383 14.7591 9.87911 14.9265 9.94015ZM18.8184 9.49391L16.5226 8.65719C16.3552 8.59615 16.17 8.68247 16.1089 8.84991C16.0479 9.01735 16.1342 9.20263 16.3016 9.26359L18.5973 10.1003C18.7648 10.1613 18.95 10.075 19.0111 9.90759C19.0721 9.74015 18.9858 9.55487 18.8184 9.49391ZM15.3054 8.90055C15.4728 8.96159 15.658 8.87527 15.7191 8.70783C15.7801 8.54039 15.6939 8.35519 15.5264 8.29415C15.3589 8.23311 15.1737 8.31935 15.1127 8.48687C15.0516 8.65431 15.138 8.83951 15.3054 8.90055ZM15.6843 7.86098C15.8517 7.922 16.0369 7.83573 16.098 7.66827C16.159 7.50082 16.0727 7.31559 15.9052 7.25456C15.7378 7.19353 15.5526 7.27981 15.4916 7.44727C15.4305 7.61472 15.5168 7.79995 15.6843 7.86098ZM19.1972 8.45431L16.9015 7.61764C16.734 7.55661 16.5488 7.64289 16.4878 7.81035C16.4268 7.9778 16.5131 8.16303 16.6805 8.22407L18.9762 9.06071C19.1436 9.12175 19.3289 9.03551 19.3899 8.86799C19.4509 8.70055 19.3647 8.51535 19.1972 8.45431Z" fill="url(#paint0_linear_1692_26003)"/>
<path d="M6.68437 11.7265C6.63102 11.551 6.72999 11.3656 6.90542 11.3122L9.31045 10.5809C9.48589 10.5275 9.67133 10.6265 9.72469 10.8019C9.77805 10.9773 9.67909 11.1628 9.50365 11.2161L7.09861 11.9475C6.92318 12.0009 6.73773 11.9019 6.68437 11.7265Z" fill="#7A24E7"/>
<path d="M6.27473 11.8488C6.32808 12.0242 6.22912 12.2097 6.05368 12.263C5.87826 12.3164 5.6928 12.2174 5.63945 12.042C5.5861 11.8665 5.68507 11.6811 5.86049 11.6277C6.03592 11.5744 6.22139 11.6733 6.27473 11.8488Z" fill="#7A24E7"/>
<path d="M6.37968 10.7265C6.32634 10.551 6.4253 10.3656 6.60073 10.3122L9.00575 9.58086C9.18119 9.5275 9.36663 9.62646 9.41999 9.8019C9.47335 9.97734 9.37439 10.1628 9.19895 10.2161L6.79392 10.9475C6.6185 11.0009 6.43304 10.9019 6.37968 10.7265Z" fill="#7A24E7"/>
<path d="M5.972 10.8487C6.02535 11.0242 5.92638 11.2097 5.75096 11.263C5.57553 11.3163 5.39006 11.2174 5.33672 11.0419C5.28337 10.8666 5.38233 10.6811 5.55777 10.6277C5.73319 10.5744 5.91865 10.6734 5.972 10.8487Z" fill="#7A24E7"/>
<path d="M6.04961 9.63662C5.99626 9.46118 6.09522 9.27574 6.27065 9.22238L8.67566 8.49102C8.8511 8.43766 9.03654 8.53662 9.0899 8.71206C9.14326 8.88742 9.0443 9.07294 8.86886 9.1263L6.46385 9.85766C6.28842 9.91102 6.10295 9.81206 6.04961 9.63662Z" fill="#7A24E7"/>
<path d="M5.63997 9.76284C5.69332 9.93828 5.59436 10.1237 5.41892 10.1771C5.24349 10.2304 5.05804 10.1315 5.00468 9.95604C4.95134 9.7806 5.0503 9.59516 5.22573 9.5418C5.40116 9.48844 5.58662 9.5874 5.63997 9.76284Z" fill="#7A24E7"/>
<path d="M5.30989 8.673C5.36324 8.84844 5.26427 9.03388 5.08884 9.08724C4.91342 9.1406 4.72795 9.04164 4.67461 8.8662C4.62126 8.69076 4.72022 8.50532 4.89565 8.45196C5.07108 8.3986 5.25654 8.49756 5.30989 8.673Z" fill="#7A24E7"/>
<path d="M5.71758 8.54675C5.66423 8.37139 5.76319 8.18587 5.93863 8.13251L8.34362 7.40117C8.51906 7.34782 8.7045 7.44679 8.75786 7.62222C8.81122 7.79764 8.71226 7.98311 8.53682 8.03643L6.13182 8.76787C5.95639 8.82115 5.77093 8.72219 5.71758 8.54675Z" fill="#7A24E7"/>
<path fill-rule="evenodd" clip-rule="evenodd" d="M9.3318 5.51484C9.20988 5.11386 8.78596 4.88765 8.38492 5.00959L3.62031 6.45855C3.21933 6.58049 2.99312 7.0044 3.11506 7.40538L3.25306 7.85915L9.4698 5.96862L9.3318 5.51484ZM6.90494 11.3094L9.30996 10.5781C9.4854 10.5247 9.67084 10.6237 9.7242 10.7991C9.77756 10.9745 9.6786 11.16 9.50316 11.2133L7.09813 11.9447C6.9227 11.9981 6.73724 11.8991 6.68389 11.7237C6.63054 11.5482 6.72951 11.3628 6.90494 11.3094ZM6.27549 11.8478C6.32884 12.0233 6.22988 12.2087 6.05444 12.2621C5.87902 12.3154 5.69356 12.2165 5.64021 12.041C5.58686 11.8656 5.68583 11.6801 5.86125 11.6268C6.03668 11.5734 6.22215 11.6724 6.27549 11.8478ZM6.60135 10.3111L9.00636 9.57975C9.1818 9.52639 9.36724 9.62535 9.4206 9.80079C9.47396 9.97623 9.375 10.1617 9.19956 10.215L6.79454 10.9464C6.61912 10.9997 6.43365 10.9008 6.3803 10.7253C6.32696 10.5499 6.42592 10.3645 6.60135 10.3111ZM5.9719 10.8495C6.02525 11.0249 5.92628 11.2105 5.75086 11.2637C5.57543 11.3171 5.38996 11.2181 5.33662 11.0427C5.28327 10.8673 5.38224 10.6818 5.55767 10.6285C5.73309 10.5752 5.91856 10.6741 5.9719 10.8495ZM6.27016 9.22207L8.67516 8.49071C8.8506 8.43735 9.03604 8.53631 9.0894 8.71175C9.14276 8.88711 9.0438 9.07263 8.86836 9.12599L6.46336 9.85735C6.28792 9.91071 6.10246 9.81175 6.04912 9.63631C5.99576 9.46087 6.09473 9.27543 6.27016 9.22207ZM5.64072 9.76047C5.69406 9.93591 5.5951 10.1213 5.41967 10.1747C5.24424 10.2281 5.05878 10.1291 5.00543 9.95367C4.95208 9.77823 5.05104 9.59279 5.22648 9.53943C5.40191 9.48607 5.58736 9.58503 5.64072 9.76047ZM5.30952 8.67143C5.36288 8.84687 5.26391 9.03231 5.08848 9.08567C4.91305 9.13903 4.72759 9.04007 4.67424 8.86463C4.62089 8.68919 4.71986 8.50375 4.89528 8.45039C5.07072 8.39703 5.25618 8.49599 5.30952 8.67143ZM5.93897 8.13295L8.34396 7.40161C8.5194 7.34826 8.70484 7.44723 8.7582 7.62266C8.81156 7.79808 8.7126 7.98355 8.53716 8.03687L6.13216 8.76831C5.95673 8.82159 5.77128 8.72263 5.71792 8.54719C5.66457 8.37183 5.76354 8.18631 5.93897 8.13295Z" fill="#7A24E7"/>
<path fill-rule="evenodd" clip-rule="evenodd" d="M4.9493 13.4408C5.07123 13.8417 5.49515 14.0679 5.89613 13.946L10.6608 12.497C11.0617 12.3751 11.288 11.9512 11.1661 11.5502L9.4687 5.96875L3.25195 7.85929L4.9493 13.4408ZM9.30886 10.5782L6.90383 11.3096C6.7284 11.3629 6.62943 11.5484 6.68278 11.7238C6.73614 11.8992 6.92159 11.9982 7.09703 11.9448L9.50206 11.2135C9.6775 11.1601 9.77646 10.9747 9.7231 10.7992C9.66974 10.6238 9.4843 10.5248 9.30886 10.5782ZM6.05334 12.2622C6.22877 12.2088 6.32774 12.0234 6.27439 11.848C6.22104 11.6725 6.03558 11.5736 5.86015 11.6269C5.68472 11.6803 5.58575 11.8657 5.63911 12.0412C5.69245 12.2166 5.87791 12.3156 6.05334 12.2622ZM9.00526 9.57988L6.60024 10.3112C6.42481 10.3646 6.32585 10.55 6.37919 10.7255C6.43255 10.9009 6.61801 10.9999 6.79343 10.9465L9.19846 10.2152C9.3739 10.1618 9.47286 9.97636 9.4195 9.80092C9.36614 9.62548 9.1807 9.52652 9.00526 9.57988ZM5.74975 11.2639C5.92518 11.2106 6.02415 11.0251 5.97079 10.8496C5.91745 10.6743 5.73199 10.5753 5.55656 10.6286C5.38113 10.682 5.28216 10.8675 5.33551 11.0428C5.38886 11.2183 5.57432 11.3172 5.74975 11.2639ZM8.67406 8.49084L6.26905 9.2222C6.09363 9.27556 5.99466 9.461 6.04801 9.63644C6.10135 9.81188 6.28682 9.91084 6.46225 9.85748L8.86726 9.12612C9.0427 9.07276 9.14166 8.88724 9.0883 8.71188C9.03494 8.53644 8.8495 8.43748 8.67406 8.49084ZM5.41856 10.1748C5.59399 10.1215 5.69295 9.93604 5.63961 9.7606C5.58626 9.58516 5.4008 9.4862 5.22537 9.53956C5.04994 9.59292 4.95098 9.77836 5.00432 9.9538C5.05767 10.1292 5.24313 10.2282 5.41856 10.1748ZM5.08737 9.0858C5.2628 9.03244 5.36177 8.847 5.30842 8.67156C5.25507 8.49612 5.06961 8.39716 4.89418 8.45052C4.71875 8.50388 4.61979 8.68932 4.67314 8.86476C4.72648 9.0402 4.91195 9.13916 5.08737 9.0858ZM8.34286 7.40174L5.93786 8.13308C5.76243 8.18644 5.66346 8.37196 5.71682 8.54732C5.77017 8.72276 5.95563 8.82172 6.13106 8.76844L8.53606 8.037C8.7115 7.98368 8.81046 7.79821 8.7571 7.62279C8.70374 7.44736 8.5183 7.34839 8.34286 7.40174Z" fill="url(#paint1_linear_1692_26003)"/>
<path d="M10.8828 10.9131C10.8828 10.7238 11.0363 10.5703 11.2256 10.5703H13.8211C14.0103 10.5703 14.1638 10.7238 14.1638 10.9131C14.1638 11.1025 14.0103 11.2559 13.8211 11.2559H11.2256C11.0363 11.2559 10.8828 11.1025 10.8828 10.9131Z" fill="#7A24E7"/>
<path d="M10.4414 10.9131C10.4414 11.1025 10.2879 11.2559 10.0986 11.2559C9.9093 11.2559 9.75586 11.1025 9.75586 10.9131C9.75586 10.7238 9.9093 10.5703 10.0986 10.5703C10.2879 10.5703 10.4414 10.7238 10.4414 10.9131Z" fill="#7A24E7"/>
<path d="M10.8828 9.83491C10.8828 9.64563 11.0363 9.49219 11.2256 9.49219H13.8211C14.0103 9.49219 14.1638 9.64563 14.1638 9.83491C14.1638 10.0243 14.0103 10.1777 13.8211 10.1777H11.2256C11.0363 10.1777 10.8828 10.0243 10.8828 9.83491Z" fill="#7A24E7"/>
<path d="M10.4414 9.83491C10.4414 10.0243 10.2879 10.1777 10.0986 10.1777C9.9093 10.1777 9.75586 10.0243 9.75586 9.83491C9.75586 9.64563 9.9093 9.49219 10.0986 9.49219C10.2879 9.49219 10.4414 9.64563 10.4414 9.83491Z" fill="#7A24E7"/>
<path d="M10.8828 8.65913C10.8828 8.46985 11.0363 8.31641 11.2256 8.31641H13.8211C14.0103 8.31641 14.1638 8.46985 14.1638 8.65913C14.1638 8.84849 14.0103 9.00193 13.8211 9.00193H11.2256C11.0363 9.00193 10.8828 8.84849 10.8828 8.65913Z" fill="#7A24E7"/>
<path d="M10.4414 8.65913C10.4414 8.84849 10.2879 9.00193 10.0986 9.00193C9.9093 9.00193 9.75586 8.84849 9.75586 8.65913C9.75586 8.46985 9.9093 8.31641 10.0986 8.31641C10.2879 8.31641 10.4414 8.46985 10.4414 8.65913Z" fill="#7A24E7"/>
<path d="M10.4414 7.48342C10.4414 7.67273 10.2879 7.8262 10.0986 7.8262C9.9093 7.8262 9.75586 7.67273 9.75586 7.48342C9.75586 7.2941 9.9093 7.14062 10.0986 7.14062C10.2879 7.14062 10.4414 7.2941 10.4414 7.48342Z" fill="#7A24E7"/>
<path d="M10.8828 7.48342C10.8828 7.2941 11.0363 7.14062 11.2256 7.14062H13.8211C14.0103 7.14062 14.1638 7.2941 14.1638 7.48342C14.1638 7.67273 14.0103 7.8262 13.8211 7.8262H11.2256C11.0363 7.8262 10.8828 7.67273 10.8828 7.48342Z" fill="#7A24E7"/>
<path fill-rule="evenodd" clip-rule="evenodd" d="M15.3631 5.57257C15.3631 5.13985 15.0124 4.78906 14.5796 4.78906H9.43782C9.0051 4.78906 8.6543 5.13985 8.6543 5.57257V6.06228H15.3631V5.57257ZM11.2252 10.5675H13.8206C14.0099 10.5675 14.1633 10.721 14.1633 10.9103C14.1633 11.0996 14.0099 11.2531 13.8206 11.2531H11.2252C11.0359 11.2531 10.8824 11.0996 10.8824 10.9103C10.8824 10.721 11.0359 10.5675 11.2252 10.5675ZM10.4417 10.9103C10.4417 11.0996 10.2882 11.2531 10.0989 11.2531C9.90958 11.2531 9.75614 11.0996 9.75614 10.9103C9.75614 10.721 9.90958 10.5675 10.0989 10.5675C10.2882 10.5675 10.4417 10.721 10.4417 10.9103ZM11.2252 9.49019H13.8206C14.0099 9.49019 14.1633 9.64363 14.1633 9.83291C14.1633 10.0223 14.0099 10.1757 13.8206 10.1757H11.2252C11.0359 10.1757 10.8824 10.0223 10.8824 9.83291C10.8824 9.64363 11.0359 9.49019 11.2252 9.49019ZM10.4417 9.83291C10.4417 10.0223 10.2882 10.1757 10.0989 10.1757C9.90958 10.1757 9.75614 10.0223 9.75614 9.83291C9.75614 9.64363 9.90958 9.49019 10.0989 9.49019C10.2882 9.49019 10.4417 9.64363 10.4417 9.83291ZM11.2252 8.31491H13.8206C14.0099 8.31491 14.1633 8.46835 14.1633 8.65763C14.1633 8.84699 14.0099 9.00043 13.8206 9.00043H11.2252C11.0359 9.00043 10.8824 8.84699 10.8824 8.65763C10.8824 8.46835 11.0359 8.31491 11.2252 8.31491ZM10.4417 8.65763C10.4417 8.84699 10.2882 9.00043 10.0989 9.00043C9.90958 9.00043 9.75614 8.84699 9.75614 8.65763C9.75614 8.46835 9.90958 8.31491 10.0989 8.31491C10.2882 8.31491 10.4417 8.46835 10.4417 8.65763ZM10.4417 7.4824C10.4417 7.67171 10.2882 7.82518 10.0989 7.82518C9.90958 7.82518 9.75614 7.67171 9.75614 7.4824C9.75614 7.29308 9.90958 7.13961 10.0989 7.13961C10.2882 7.13961 10.4417 7.29308 10.4417 7.4824ZM11.2252 7.13961H13.8206C14.0099 7.13961 14.1633 7.29308 14.1633 7.4824C14.1633 7.67171 14.0099 7.82518 13.8206 7.82518H11.2252C11.0359 7.82518 10.8824 7.67171 10.8824 7.4824C10.8824 7.29308 11.0359 7.13961 11.2252 7.13961Z" fill="#7A24E7"/>
<path fill-rule="evenodd" clip-rule="evenodd" d="M8.6543 12.0858C8.6543 12.5185 9.0051 12.8693 9.43782 12.8693H14.5796C15.0124 12.8693 15.3631 12.5185 15.3631 12.0858V6.0625H8.6543V12.0858ZM13.8206 10.5677H11.2252C11.0359 10.5677 10.8824 10.7212 10.8824 10.9105C10.8824 11.0999 11.0359 11.2533 11.2252 11.2533H13.8206C14.0099 11.2533 14.1633 11.0999 14.1633 10.9105C14.1633 10.7212 14.0099 10.5677 13.8206 10.5677ZM10.0989 11.2533C10.2882 11.2533 10.4417 11.0999 10.4417 10.9105C10.4417 10.7212 10.2882 10.5677 10.0989 10.5677C9.90958 10.5677 9.75614 10.7212 9.75614 10.9105C9.75614 11.0999 9.90958 11.2533 10.0989 11.2533ZM13.8206 9.49041H11.2252C11.0359 9.49041 10.8824 9.64385 10.8824 9.83313C10.8824 10.0225 11.0359 10.1759 11.2252 10.1759H13.8206C14.0099 10.1759 14.1633 10.0225 14.1633 9.83313C14.1633 9.64385 14.0099 9.49041 13.8206 9.49041ZM10.0989 10.1759C10.2882 10.1759 10.4417 10.0225 10.4417 9.83313C10.4417 9.64385 10.2882 9.49041 10.0989 9.49041C9.90958 9.49041 9.75614 9.64385 9.75614 9.83313C9.75614 10.0225 9.90958 10.1759 10.0989 10.1759ZM13.8206 8.31513H11.2252C11.0359 8.31513 10.8824 8.46857 10.8824 8.65785C10.8824 8.84721 11.0359 9.00065 11.2252 9.00065H13.8206C14.0099 9.00065 14.1633 8.84721 14.1633 8.65785C14.1633 8.46857 14.0099 8.31513 13.8206 8.31513ZM10.0989 9.00065C10.2882 9.00065 10.4417 8.84721 10.4417 8.65785C10.4417 8.46857 10.2882 8.31513 10.0989 8.31513C9.90958 8.31513 9.75614 8.46857 9.75614 8.65785C9.75614 8.84721 9.90958 9.00065 10.0989 9.00065ZM10.0989 7.8254C10.2882 7.8254 10.4417 7.67193 10.4417 7.48262C10.4417 7.2933 10.2882 7.13983 10.0989 7.13983C9.90958 7.13983 9.75614 7.2933 9.75614 7.48262C9.75614 7.67193 9.90958 7.8254 10.0989 7.8254ZM13.8206 7.13983H11.2252C11.0359 7.13983 10.8824 7.2933 10.8824 7.48262C10.8824 7.67193 11.0359 7.8254 11.2252 7.8254H13.8206C14.0099 7.8254 14.1633 7.67193 14.1633 7.48262C14.1633 7.2933 14.0099 7.13983 13.8206 7.13983Z" fill="url(#paint2_linear_1692_26003)"/>
<path d="M14.6541 15.3825C14.7459 15.2152 14.9561 15.154 15.1234 15.2459L17.4176 16.5053C17.585 16.5972 17.6462 16.8073 17.5542 16.9747C17.4624 17.142 17.2522 17.2032 17.085 17.1113L14.7907 15.8519C14.6234 15.76 14.5622 15.5499 14.6541 15.3825Z" fill="#7A24E7"/>
<path d="M14.2659 15.1683C14.174 15.3356 13.9639 15.3968 13.7966 15.305C13.6292 15.2131 13.568 15.003 13.6599 14.8356C13.7518 14.6683 13.9619 14.6071 14.1292 14.699C14.2966 14.7908 14.3578 15.001 14.2659 15.1683Z" fill="#7A24E7"/>
<path d="M15.1775 14.4333C15.2694 14.2659 15.4795 14.2047 15.6468 14.2967L17.9411 15.5561C18.1084 15.6479 18.1696 15.8581 18.0777 16.0255C17.9859 16.1928 17.7757 16.2539 17.6083 16.1621L15.3142 14.9027C15.1468 14.8107 15.0856 14.6007 15.1775 14.4333Z" fill="#7A24E7"/>
<path d="M14.7875 14.2191C14.6955 14.3864 14.4854 14.4476 14.3181 14.3558C14.1507 14.2639 14.0895 14.0538 14.1814 13.8864C14.2733 13.7191 14.4835 13.6579 14.6507 13.7498C14.8181 13.8416 14.8793 14.0518 14.7875 14.2191Z" fill="#7A24E7"/>
<path d="M15.7478 13.3943C15.8397 13.2269 16.0499 13.1657 16.2171 13.2575L18.5114 14.5171C18.6787 14.6089 18.7399 14.8191 18.648 14.9864C18.5562 15.1537 18.346 15.2149 18.1787 15.1231L15.8845 13.8636C15.7171 13.7717 15.6559 13.5616 15.7478 13.3943Z" fill="#7A24E7"/>
<path d="M15.3578 13.18C15.2658 13.3474 15.0558 13.4086 14.8884 13.3167C14.721 13.2248 14.6598 13.0147 14.7517 12.8474C14.8436 12.68 15.0538 12.6188 15.221 12.7107C15.3884 12.8026 15.4496 13.0127 15.3578 13.18Z" fill="#7A24E7"/>
<path d="M15.9281 12.141C15.8362 12.3083 15.6261 12.3695 15.4587 12.2777C15.2914 12.1858 15.2302 11.9757 15.322 11.8083C15.4139 11.641 15.6241 11.5798 15.7914 11.6716C15.9587 11.7635 16.0199 11.9736 15.9281 12.141Z" fill="#7A24E7"/>
<path d="M16.3181 12.3552C16.41 12.1878 16.6201 12.1266 16.7874 12.2185L19.0817 13.478C19.249 13.5698 19.3102 13.78 19.2183 13.9474C19.1265 14.1146 18.9163 14.1758 18.7489 14.084L16.4548 12.8246C16.2874 12.7326 16.2262 12.5226 16.3181 12.3552Z" fill="#7A24E7"/>
<path fill-rule="evenodd" clip-rule="evenodd" d="M21.2065 12.8414C21.4165 12.4589 21.2766 11.9786 20.8941 11.7686L16.349 9.27344C15.9664 9.06344 15.4861 9.20328 15.2762 9.58584L15.0385 10.0187L20.9688 13.2742L21.2065 12.8414ZM15.1248 15.2487L17.4191 16.5082C17.5864 16.6 17.6476 16.8102 17.5557 16.9775C17.4639 17.1448 17.2537 17.206 17.0864 17.1142L14.7922 15.8547C14.6248 15.7628 14.5636 15.5527 14.6555 15.3854C14.7474 15.218 14.9575 15.1568 15.1248 15.2487ZM14.2659 15.1714C14.174 15.3388 13.9639 15.4 13.7966 15.3082C13.6292 15.2162 13.568 15.0062 13.6599 14.8388C13.7518 14.6714 13.9619 14.6102 14.1292 14.7022C14.2966 14.794 14.3578 15.0042 14.2659 15.1714ZM15.6476 14.2964L17.9419 15.5558C18.1092 15.6477 18.1704 15.8578 18.0785 16.0252C17.9867 16.1926 17.7765 16.2537 17.6091 16.1618L15.315 14.9024C15.1476 14.8105 15.0864 14.6004 15.1783 14.433C15.2702 14.2657 15.4803 14.2045 15.6476 14.2964ZM14.7887 14.2192C14.6968 14.3865 14.4867 14.4477 14.3194 14.3558C14.152 14.2639 14.0908 14.0538 14.1827 13.8865C14.2746 13.7191 14.4847 13.6579 14.652 13.7498C14.8194 13.8417 14.8806 14.0518 14.7887 14.2192ZM16.2179 13.2574L18.5122 14.517C18.6795 14.6088 18.7407 14.819 18.6488 14.9863C18.557 15.1536 18.3468 15.2148 18.1795 15.123L15.8853 13.8635C15.7179 13.7716 15.6567 13.5615 15.7486 13.3942C15.8405 13.2268 16.0507 13.1656 16.2179 13.2574ZM15.3591 13.1802C15.2671 13.3476 15.0571 13.4088 14.8897 13.317C14.7223 13.225 14.6611 13.015 14.753 12.8476C14.8449 12.6802 15.0551 12.619 15.2223 12.711C15.3897 12.8028 15.4509 13.013 15.3591 13.1802ZM15.9294 12.1414C15.8375 12.3087 15.6274 12.3699 15.46 12.2781C15.2927 12.1862 15.2315 11.9761 15.3233 11.8087C15.4152 11.6414 15.6254 11.5802 15.7927 11.672C15.96 11.7639 16.0212 11.974 15.9294 12.1414ZM16.7883 12.2186L19.0825 13.4781C19.2499 13.5699 19.3111 13.7801 19.2191 13.9474C19.1273 14.1147 18.9171 14.1759 18.7498 14.0841L16.4556 12.8246C16.2883 12.7327 16.2271 12.5226 16.319 12.3553C16.4108 12.1879 16.621 12.1267 16.7883 12.2186Z" fill="#7A24E7"/>
<path fill-rule="evenodd" clip-rule="evenodd" d="M12.1152 15.3399C11.9052 15.7224 12.0451 16.2027 12.4276 16.4127L16.9728 18.9079C17.3552 19.1179 17.8356 18.978 18.0456 18.5955L20.9684 13.2711L15.0381 10.0156L12.1152 15.3399ZM17.4187 16.5051L15.1244 15.2456C14.9572 15.1537 14.747 15.2149 14.6552 15.3823C14.5632 15.5496 14.6244 15.7597 14.7918 15.8516L17.086 17.1111C17.2533 17.2029 17.4635 17.1417 17.5553 16.9744C17.6472 16.8071 17.586 16.5969 17.4187 16.5051ZM13.7962 15.3051C13.9636 15.3969 14.1736 15.3357 14.2656 15.1683C14.3574 15.0011 14.2962 14.7909 14.1288 14.6991C13.9616 14.6071 13.7514 14.6683 13.6596 14.8357C13.5676 15.0031 13.6288 15.2131 13.7962 15.3051ZM17.9415 15.5527L15.6472 14.2933C15.48 14.2014 15.2698 14.2626 15.1779 14.4299C15.086 14.5973 15.1472 14.8074 15.3146 14.8993L17.6088 16.1587C17.7761 16.2506 17.9863 16.1895 18.0781 16.0221C18.17 15.8547 18.1088 15.6446 17.9415 15.5527ZM14.319 14.3527C14.4864 14.4446 14.6964 14.3834 14.7884 14.2161C14.8802 14.0487 14.819 13.8386 14.6516 13.7467C14.4844 13.6548 14.2742 13.716 14.1823 13.8834C14.0904 14.0507 14.1516 14.2608 14.319 14.3527ZM18.5118 14.5139L16.2176 13.2543C16.0503 13.1625 15.8401 13.2237 15.7482 13.3911C15.6564 13.5584 15.7176 13.7685 15.8849 13.8604L18.1791 15.1199C18.3464 15.2117 18.5566 15.1505 18.6484 14.9832C18.7404 14.8159 18.6792 14.6057 18.5118 14.5139ZM14.8893 13.3139C15.0567 13.4057 15.2668 13.3445 15.3587 13.1771C15.4505 13.0099 15.3893 12.7997 15.222 12.7079C15.0547 12.6159 14.8445 12.6771 14.7526 12.8445C14.6608 13.0119 14.722 13.2219 14.8893 13.3139ZM15.4596 12.275C15.627 12.3668 15.8371 12.3056 15.929 12.1383C16.0208 11.9709 15.9596 11.7608 15.7923 11.6689C15.625 11.5771 15.4148 11.6383 15.3229 11.8056C15.2311 11.973 15.2923 12.1831 15.4596 12.275ZM19.0821 13.475L16.7879 12.2155C16.6206 12.1236 16.4104 12.1848 16.3186 12.3522C16.2267 12.5195 16.2879 12.7296 16.4552 12.8215L18.7494 14.081C18.9168 14.1728 19.1269 14.1116 19.2188 13.9443C19.3107 13.777 19.2495 13.5668 19.0821 13.475Z" fill="url(#paint3_linear_1692_26003)"/>
<path d="M6.98191 16.4497C6.90196 16.2813 6.9737 16.0798 7.14215 15.9999L9.45153 14.9038C9.62001 14.8238 9.82137 14.8956 9.90137 15.064C9.98129 15.2325 9.90953 15.4338 9.74113 15.5138L7.4317 16.6099C7.26325 16.6899 7.06186 16.6182 6.98191 16.4497Z" fill="#7A24E7"/>
<path d="M6.59 16.6343C6.66995 16.8028 6.5982 17.0042 6.42975 17.0841C6.26129 17.1641 6.05992 17.0923 5.97996 16.9238C5.9 16.7554 5.97175 16.554 6.1402 16.4741C6.30866 16.3942 6.51004 16.4658 6.59 16.6343Z" fill="#7A24E7"/>
<path d="M6.52684 15.4887C6.44688 15.3203 6.51862 15.119 6.68708 15.039L8.99649 13.9428C9.16497 13.8629 9.36633 13.9347 9.44625 14.1031C9.52625 14.2715 9.45449 14.4729 9.28601 14.5529L6.97663 15.6491C6.80817 15.729 6.60679 15.6572 6.52684 15.4887Z" fill="#7A24E7"/>
<path d="M6.13491 15.6773C6.21487 15.8458 6.14313 16.0471 5.97467 16.1271C5.80621 16.207 5.60484 16.1353 5.52488 15.9669C5.44493 15.7984 5.51667 15.597 5.68513 15.517C5.85358 15.4371 6.05496 15.5089 6.13491 15.6773Z" fill="#7A24E7"/>
<path d="M6.03074 14.4458C5.95079 14.2774 6.02253 14.0759 6.19099 13.996L8.50036 12.8999C8.66884 12.8199 8.8702 12.8917 8.9502 13.0601C9.03012 13.2286 8.95836 13.4299 8.78996 13.5099L6.48053 14.606C6.31207 14.686 6.1107 14.6143 6.03074 14.4458Z" fill="#7A24E7"/>
<path d="M5.63882 14.6304C5.71877 14.7989 5.64703 15.0003 5.47857 15.0802C5.31012 15.1602 5.10874 15.0884 5.02879 14.9199C4.94883 14.7515 5.02057 14.5501 5.18903 14.4702C5.35749 14.3903 5.55886 14.4619 5.63882 14.6304Z" fill="#7A24E7"/>
<path d="M5.14272 13.5836C5.22268 13.7521 5.15094 13.9534 4.98248 14.0333C4.81403 14.1133 4.61265 14.0416 4.53269 13.8731C4.45274 13.7047 4.52448 13.5033 4.69294 13.4233C4.86139 13.3433 5.06277 13.4151 5.14272 13.5836Z" fill="#7A24E7"/>
<path d="M5.53465 13.3989C5.45469 13.2305 5.52643 13.0291 5.69489 12.9492L8.00431 11.853C8.17279 11.7731 8.37415 11.8448 8.45407 12.0132C8.53407 12.1817 8.46231 12.3831 8.29383 12.4631L5.98444 13.5592C5.81598 13.6392 5.6146 13.5674 5.53465 13.3989Z" fill="#7A24E7"/>
<path fill-rule="evenodd" clip-rule="evenodd" d="M8.71423 9.80818C8.53151 9.42314 8.07119 9.25914 7.68617 9.44194L3.11092 11.6135C2.72588 11.7963 2.56189 12.2566 2.74465 12.6416L2.95147 13.0774L8.92111 10.2439L8.71423 9.80818ZM7.14182 16.0003L9.45119 14.9042C9.61967 14.8243 9.82103 14.896 9.90103 15.0644C9.98095 15.2329 9.90919 15.4343 9.74079 15.5143L7.43137 16.6103C7.26291 16.6903 7.06153 16.6186 6.98158 16.4501C6.90163 16.2817 6.97336 16.0803 7.14182 16.0003ZM6.58942 16.6363C6.66937 16.8047 6.59763 17.0061 6.42917 17.086C6.26071 17.166 6.05934 17.0943 5.97938 16.9258C5.89943 16.7574 5.97117 16.5559 6.13963 16.476C6.30808 16.3961 6.50946 16.4678 6.58942 16.6363ZM6.68682 15.0417L8.99623 13.9455C9.16471 13.8656 9.36607 13.9374 9.44599 14.1058C9.52599 14.2743 9.45423 14.4756 9.28575 14.5556L6.97637 15.6518C6.80791 15.7317 6.60653 15.6599 6.52658 15.4915C6.44662 15.3231 6.51836 15.1217 6.68682 15.0417ZM6.13441 15.6776C6.21437 15.8461 6.14263 16.0475 5.97417 16.1275C5.80571 16.2074 5.60434 16.1356 5.52438 15.9672C5.44443 15.7987 5.51617 15.5974 5.68463 15.5174C5.85308 15.4375 6.05446 15.5092 6.13441 15.6776ZM6.19046 13.9959L8.49983 12.8998C8.66831 12.8199 8.86967 12.8916 8.94967 13.06C9.02959 13.2285 8.95783 13.4299 8.78943 13.5099L6.48 14.6059C6.31155 14.6859 6.11017 14.6142 6.03021 14.4457C5.95026 14.2773 6.022 14.0759 6.19046 13.9959ZM5.63805 14.6319C5.718 14.8003 5.64626 15.0017 5.4778 15.0816C5.30935 15.1616 5.10797 15.0899 5.02802 14.9214C4.94806 14.753 5.0198 14.5515 5.18826 14.4716C5.35671 14.3917 5.55809 14.4634 5.63805 14.6319ZM5.14168 13.5861C5.22164 13.7546 5.1499 13.9559 4.98144 14.0359C4.81299 14.1159 4.61161 14.0441 4.53165 13.8756C4.4517 13.7072 4.52344 13.5058 4.6919 13.4259C4.86035 13.3459 5.06173 13.4176 5.14168 13.5861ZM5.69409 12.9502L8.00351 11.854C8.17199 11.7741 8.37335 11.8458 8.45327 12.0143C8.53327 12.1827 8.46151 12.3841 8.29303 12.4641L5.98364 13.5602C5.81519 13.6402 5.6138 13.5684 5.53385 13.3999C5.45389 13.2315 5.52563 13.0301 5.69409 12.9502Z" fill="#7A24E7"/>
<path fill-rule="evenodd" clip-rule="evenodd" d="M5.49504 18.4351C5.6778 18.8202 6.13809 18.9842 6.52313 18.8015L11.0983 16.6299C11.4835 16.4471 11.6474 15.9868 11.4647 15.6018L8.92082 10.2422L2.95117 13.0756L5.49504 18.4351ZM9.4509 14.9024L7.14152 15.9986C6.97307 16.0785 6.90133 16.2799 6.98128 16.4483C7.06124 16.6168 7.26262 16.6886 7.43108 16.6086L9.7405 15.5125C9.9089 15.4325 9.98066 15.2311 9.90074 15.0627C9.82074 14.8943 9.61938 14.8225 9.4509 14.9024ZM6.42888 17.0843C6.59733 17.0043 6.66908 16.803 6.58912 16.6345C6.50916 16.466 6.30779 16.3943 6.13933 16.4743C5.97088 16.5542 5.89913 16.7556 5.97908 16.924C6.05904 17.0925 6.26042 17.1643 6.42888 17.0843ZM8.99594 13.9438L6.68652 15.0399C6.51807 15.1199 6.44632 15.3213 6.52628 15.4897C6.60624 15.6582 6.80762 15.7299 6.97608 15.65L9.28546 14.5539C9.45394 14.4739 9.5257 14.2725 9.4457 14.104C9.36578 13.9356 9.16442 13.8639 8.99594 13.9438ZM5.97388 16.1257C6.14233 16.0457 6.21408 15.8443 6.13412 15.6759C6.05416 15.5075 5.85279 15.4357 5.68433 15.5156C5.51588 15.5956 5.44413 15.797 5.52408 15.9655C5.60404 16.1339 5.80542 16.2056 5.97388 16.1257ZM8.49954 12.898L6.19016 13.9942C6.02171 14.0741 5.94996 14.2755 6.02992 14.4439C6.10988 14.6124 6.31125 14.6842 6.47971 14.6042L8.78914 13.5081C8.95754 13.4281 9.0293 13.2267 8.94938 13.0583C8.86938 12.8899 8.66802 12.8181 8.49954 12.898ZM5.47751 15.0799C5.64596 14.9999 5.71771 14.7986 5.63776 14.6301C5.5578 14.4616 5.35642 14.3899 5.18796 14.4699C5.01951 14.5498 4.94776 14.7512 5.02772 14.9196C5.10768 15.0881 5.30905 15.1599 5.47751 15.0799ZM4.98115 14.0341C5.1496 13.9542 5.22135 13.7528 5.14139 13.5843C5.06144 13.4159 4.86006 13.3441 4.6916 13.4241C4.52315 13.504 4.4514 13.7055 4.53136 13.8739C4.61132 14.0423 4.81269 14.1141 4.98115 14.0341ZM8.00322 11.8523L5.6938 12.9484C5.52534 13.0283 5.4536 13.2298 5.53356 13.3982C5.61351 13.5667 5.81489 13.6384 5.98335 13.5584L8.29274 12.4623C8.46122 12.3823 8.53298 12.181 8.45298 12.0125C8.37306 11.844 8.1717 11.7723 8.00322 11.8523Z" fill="url(#paint4_linear_1692_26003)"/>
<path d="M10.9258 16.7128C10.9258 16.5198 11.0823 16.3633 11.2754 16.3633H13.9221C14.1152 16.3633 14.2717 16.5198 14.2717 16.7128C14.2717 16.9059 14.1152 17.0624 13.9221 17.0624H11.2754C11.0823 17.0624 10.9258 16.9059 10.9258 16.7128Z" fill="#7A24E7"/>
<path d="M10.4765 16.7128C10.4765 16.9059 10.32 17.0624 10.1269 17.0624C9.9339 17.0624 9.77734 16.9059 9.77734 16.7128C9.77734 16.5198 9.9339 16.3633 10.1269 16.3633C10.32 16.3633 10.4765 16.5198 10.4765 16.7128Z" fill="#7A24E7"/>
<path d="M10.9258 15.6152C10.9258 15.4222 11.0823 15.2656 11.2754 15.2656H13.9221C14.1152 15.2656 14.2717 15.4222 14.2717 15.6152C14.2717 15.8083 14.1152 15.9648 13.9221 15.9648H11.2754C11.0823 15.9648 10.9258 15.8083 10.9258 15.6152Z" fill="#7A24E7"/>
<path d="M10.4765 15.6152C10.4765 15.8083 10.32 15.9648 10.1269 15.9648C9.9339 15.9648 9.77734 15.8083 9.77734 15.6152C9.77734 15.4222 9.9339 15.2656 10.1269 15.2656C10.32 15.2656 10.4765 15.4222 10.4765 15.6152Z" fill="#7A24E7"/>
<path d="M10.9258 14.4159C10.9258 14.2229 11.0823 14.0664 11.2754 14.0664H13.9221C14.1152 14.0664 14.2717 14.2229 14.2717 14.4159C14.2717 14.609 14.1152 14.7655 13.9221 14.7655H11.2754C11.0823 14.7655 10.9258 14.609 10.9258 14.4159Z" fill="#7A24E7"/>
<path d="M10.4765 14.4159C10.4765 14.609 10.32 14.7655 10.1269 14.7655C9.9339 14.7655 9.77734 14.609 9.77734 14.4159C9.77734 14.2229 9.9339 14.0664 10.1269 14.0664C10.32 14.0664 10.4765 14.2229 10.4765 14.4159Z" fill="#7A24E7"/>
<path d="M10.4765 13.2167C10.4765 13.4098 10.32 13.5663 10.1269 13.5663C9.9339 13.5663 9.77734 13.4098 9.77734 13.2167C9.77734 13.0237 9.9339 12.8672 10.1269 12.8672C10.32 12.8672 10.4765 13.0237 10.4765 13.2167Z" fill="#7A24E7"/>
<path d="M10.9258 13.2167C10.9258 13.0237 11.0823 12.8672 11.2754 12.8672H13.9221C14.1152 12.8672 14.2717 13.0237 14.2717 13.2167C14.2717 13.4098 14.1152 13.5663 13.9221 13.5663H11.2754C11.0823 13.5663 10.9258 13.4098 10.9258 13.2167Z" fill="#7A24E7"/>
<path fill-rule="evenodd" clip-rule="evenodd" d="M15.496 11.2678C15.496 10.8265 15.1382 10.4688 14.6969 10.4688H9.45334C9.01206 10.4688 8.6543 10.8265 8.6543 11.2678V11.7671H15.496V11.2678ZM11.2761 16.3616H13.9229C14.116 16.3616 14.2725 16.5181 14.2725 16.7111C14.2725 16.9043 14.116 17.0607 13.9229 17.0607H11.2761C11.083 17.0607 10.9265 16.9043 10.9265 16.7111C10.9265 16.5181 11.083 16.3616 11.2761 16.3616ZM10.4771 16.7111C10.4771 16.9043 10.3205 17.0607 10.1275 17.0607C9.93446 17.0607 9.7779 16.9043 9.7779 16.7111C9.7779 16.5181 9.93446 16.3616 10.1275 16.3616C10.3205 16.3616 10.4771 16.5181 10.4771 16.7111ZM11.2761 15.2629H13.9229C14.116 15.2629 14.2725 15.4195 14.2725 15.6125C14.2725 15.8055 14.116 15.9621 13.9229 15.9621H11.2761C11.083 15.9621 10.9265 15.8055 10.9265 15.6125C10.9265 15.4195 11.083 15.2629 11.2761 15.2629ZM10.4771 15.6125C10.4771 15.8055 10.3205 15.9621 10.1275 15.9621C9.93446 15.9621 9.7779 15.8055 9.7779 15.6125C9.7779 15.4195 9.93446 15.2629 10.1275 15.2629C10.3205 15.2629 10.4771 15.4195 10.4771 15.6125ZM11.2761 14.0644H13.9229C14.116 14.0644 14.2725 14.2209 14.2725 14.414C14.2725 14.6071 14.116 14.7635 13.9229 14.7635H11.2761C11.083 14.7635 10.9265 14.6071 10.9265 14.414C10.9265 14.2209 11.083 14.0644 11.2761 14.0644ZM10.4771 14.414C10.4771 14.6071 10.3205 14.7635 10.1275 14.7635C9.93446 14.7635 9.7779 14.6071 9.7779 14.414C9.7779 14.2209 9.93446 14.0644 10.1275 14.0644C10.3205 14.0644 10.4771 14.2209 10.4771 14.414ZM10.4771 13.2154C10.4771 13.4085 10.3205 13.565 10.1275 13.565C9.93446 13.565 9.7779 13.4085 9.7779 13.2154C9.7779 13.0223 9.93446 12.8659 10.1275 12.8659C10.3205 12.8659 10.4771 13.0223 10.4771 13.2154ZM11.2761 12.8659H13.9229C14.116 12.8659 14.2725 13.0223 14.2725 13.2154C14.2725 13.4085 14.116 13.565 13.9229 13.565H11.2761C11.083 13.565 10.9265 13.4085 10.9265 13.2154C10.9265 13.0223 11.083 12.8659 11.2761 12.8659Z" fill="#7A24E7"/>
<path fill-rule="evenodd" clip-rule="evenodd" d="M8.6543 17.9121C8.6543 18.3534 9.01206 18.7111 9.45334 18.7111H14.6969C15.1382 18.7111 15.496 18.3534 15.496 17.9121V11.7695H8.6543V17.9121ZM13.9229 16.364H11.2761C11.083 16.364 10.9265 16.5205 10.9265 16.7135C10.9265 16.9067 11.083 17.0631 11.2761 17.0631H13.9229C14.116 17.0631 14.2725 16.9067 14.2725 16.7135C14.2725 16.5205 14.116 16.364 13.9229 16.364ZM10.1275 17.0631C10.3205 17.0631 10.4771 16.9067 10.4771 16.7135C10.4771 16.5205 10.3205 16.364 10.1275 16.364C9.93446 16.364 9.7779 16.5205 9.7779 16.7135C9.7779 16.9067 9.93446 17.0631 10.1275 17.0631ZM13.9229 15.2653H11.2761C11.083 15.2653 10.9265 15.4219 10.9265 15.6149C10.9265 15.8079 11.083 15.9645 11.2761 15.9645H13.9229C14.116 15.9645 14.2725 15.8079 14.2725 15.6149C14.2725 15.4219 14.116 15.2653 13.9229 15.2653ZM10.1275 15.9645C10.3205 15.9645 10.4771 15.8079 10.4771 15.6149C10.4771 15.4219 10.3205 15.2653 10.1275 15.2653C9.93446 15.2653 9.7779 15.4219 9.7779 15.6149C9.7779 15.8079 9.93446 15.9645 10.1275 15.9645ZM13.9229 14.0668H11.2761C11.083 14.0668 10.9265 14.2233 10.9265 14.4163C10.9265 14.6095 11.083 14.7659 11.2761 14.7659H13.9229C14.116 14.7659 14.2725 14.6095 14.2725 14.4163C14.2725 14.2233 14.116 14.0668 13.9229 14.0668ZM10.1275 14.7659C10.3205 14.7659 10.4771 14.6095 10.4771 14.4163C10.4771 14.2233 10.3205 14.0668 10.1275 14.0668C9.93446 14.0668 9.7779 14.2233 9.7779 14.4163C9.7779 14.6095 9.93446 14.7659 10.1275 14.7659ZM10.1275 13.5674C10.3205 13.5674 10.4771 13.4109 10.4771 13.2178C10.4771 13.0247 10.3205 12.8683 10.1275 12.8683C9.93446 12.8683 9.7779 13.0247 9.7779 13.2178C9.7779 13.4109 9.93446 13.5674 10.1275 13.5674ZM13.9229 12.8683H11.2761C11.083 12.8683 10.9265 13.0247 10.9265 13.2178C10.9265 13.4109 11.083 13.5674 11.2761 13.5674H13.9229C14.116 13.5674 14.2725 13.4109 14.2725 13.2178C14.2725 13.0247 14.116 12.8683 13.9229 12.8683Z" fill="url(#paint5_linear_1692_26003)"/>
<defs>
<linearGradient id="paint0_linear_1692_26003" x1="18.3523" y1="5.79109" x2="15.7476" y2="12.9381" gradientUnits="userSpaceOnUse">
<stop stop-color="white"/>
<stop offset="1" stop-color="#D4BBF5"/>
</linearGradient>
<linearGradient id="paint1_linear_1692_26003" x1="6.00153" y1="5.7342" x2="8.27846" y2="13.2215" gradientUnits="userSpaceOnUse">
<stop stop-color="white"/>
<stop offset="1" stop-color="#D4BBF5"/>
</linearGradient>
<linearGradient id="paint2_linear_1692_26003" x1="12.0087" y1="4.78928" x2="12.0087" y2="12.8693" gradientUnits="userSpaceOnUse">
<stop stop-color="white"/>
<stop offset="1" stop-color="#D4BBF5"/>
</linearGradient>
<linearGradient id="paint3_linear_1692_26003" x1="18.6212" y1="10.5179" x2="14.7002" y2="17.6603" gradientUnits="userSpaceOnUse">
<stop stop-color="white"/>
<stop offset="1" stop-color="#D4BBF5"/>
</linearGradient>
<linearGradient id="paint4_linear_1692_26003" x1="5.39825" y1="10.5259" x2="8.81074" y2="17.7156" gradientUnits="userSpaceOnUse">
<stop stop-color="white"/>
<stop offset="1" stop-color="#D4BBF5"/>
</linearGradient>
<linearGradient id="paint5_linear_1692_26003" x1="12.0751" y1="10.4711" x2="12.0751" y2="18.7111" gradientUnits="userSpaceOnUse">
<stop stop-color="white"/>
<stop offset="1" stop-color="#D4BBF5"/>
</linearGradient>
</defs>
</svg>
