<svg width="24" height="24" viewBox="0 0 24 24" fill="none" xmlns="http://www.w3.org/2000/svg">
<path d="M14.2575 13.7719C14.3614 13.5544 14.6219 13.4623 14.8393 13.5661L17.8207 14.9902C18.0381 15.0941 18.1302 15.3546 18.0263 15.572C17.9224 15.7895 17.6619 15.8815 17.4445 15.7777L14.4632 14.3537C14.2458 14.2498 14.1537 13.9893 14.2575 13.7719Z" fill="#7A24E7"/>
<path d="M13.7501 13.5308C13.6462 13.7483 13.3857 13.8403 13.1683 13.7364C12.9508 13.6325 12.8588 13.3721 12.9626 13.1546C13.0664 12.9371 13.327 12.8451 13.5445 12.949C13.7619 13.0528 13.854 13.3133 13.7501 13.5308Z" fill="#7A24E7"/>
<path d="M14.8474 12.5335C14.9513 12.3161 15.2118 12.224 15.4292 12.3279L18.4105 13.7519C18.6279 13.8557 18.72 14.1162 18.6161 14.3337C18.5123 14.5512 18.2517 14.6433 18.0343 14.5394L15.053 13.1153C14.8356 13.0115 14.7435 12.751 14.8474 12.5335Z" fill="#7A24E7"/>
<path d="M14.3419 12.2925C14.2381 12.51 13.9775 12.602 13.7601 12.4982C13.5426 12.3944 13.4506 12.1339 13.5544 11.9163C13.6583 11.6989 13.9188 11.6068 14.1363 11.7107C14.3537 11.8146 14.4458 12.0751 14.3419 12.2925Z" fill="#7A24E7"/>
<path d="M15.4919 11.1859C15.5958 10.9684 15.8563 10.8763 16.0738 10.9802L19.055 12.4042C19.2725 12.5081 19.3645 12.7686 19.2607 12.986C19.1568 13.2036 18.8963 13.2956 18.6789 13.1917L15.6976 11.7677C15.4801 11.6638 15.3881 11.4033 15.4919 11.1859Z" fill="#7A24E7"/>
<path d="M14.9865 10.9449C14.8826 11.1623 14.6221 11.2544 14.4047 11.1505C14.1872 11.0467 14.0951 10.7862 14.199 10.5687C14.3028 10.3512 14.5633 10.2592 14.7808 10.363C14.9982 10.4669 15.0903 10.7274 14.9865 10.9449Z" fill="#7A24E7"/>
<path d="M15.631 9.59331C15.5271 9.81076 15.2667 9.90282 15.0492 9.79893C14.8317 9.69513 14.7396 9.43465 14.8435 9.21711C14.9474 8.99965 15.2079 8.90759 15.4253 9.01148C15.6428 9.11536 15.7349 9.37585 15.631 9.59331Z" fill="#7A24E7"/>
<path d="M16.1384 9.83429C16.2423 9.61684 16.5028 9.52478 16.7203 9.62866L19.7015 11.0526C19.9189 11.1565 20.0111 11.417 19.9072 11.6345C19.8033 11.852 19.5428 11.9441 19.3254 11.8402L16.3441 10.4161C16.1266 10.3122 16.0345 10.0518 16.1384 9.83429Z" fill="#7A24E7"/>
<path fill-rule="evenodd" clip-rule="evenodd" d="M22.3319 10.1003C22.5693 9.60327 22.3589 9.00781 21.8618 8.77038L15.9555 5.9492C15.4585 5.71177 14.8631 5.92224 14.6257 6.4193L14.357 6.9818L22.0632 10.6628L22.3319 10.1003ZM14.8382 13.5674L17.8195 14.9914C18.0369 15.0953 18.129 15.3558 18.0251 15.5733C17.9212 15.7907 17.6607 15.8828 17.4433 15.7789L14.462 14.3549C14.2446 14.251 14.1525 13.9906 14.2563 13.7731C14.3602 13.5556 14.6207 13.4635 14.8382 13.5674ZM13.7501 13.5313C13.6462 13.7488 13.3857 13.8408 13.1683 13.7369C12.9508 13.633 12.8588 13.3726 12.9626 13.1551C13.0664 12.9376 13.327 12.8456 13.5445 12.9495C13.7619 13.0533 13.854 13.3138 13.7501 13.5313ZM15.4293 12.3299L18.4106 13.7539C18.628 13.8578 18.7201 14.1183 18.6162 14.3357C18.5124 14.5533 18.2518 14.6453 18.0344 14.5414L15.0531 13.1174C14.8357 13.0135 14.7436 12.753 14.8475 12.5356C14.9514 12.3181 15.2119 12.226 15.4293 12.3299ZM14.3412 12.2938C14.2374 12.5112 13.9768 12.6033 13.7594 12.4995C13.5419 12.3956 13.4498 12.1351 13.5537 11.9176C13.6576 11.7001 13.9181 11.608 14.1356 11.7119C14.353 11.8158 14.4451 12.0763 14.3412 12.2938ZM16.0742 10.9799L19.0554 12.4039C19.2728 12.5078 19.3649 12.7683 19.2611 12.9857C19.1572 13.2033 18.8967 13.2953 18.6793 13.1914L15.698 11.7674C15.4805 11.6635 15.3884 11.403 15.4923 11.1856C15.5962 10.9681 15.8567 10.876 16.0742 10.9799ZM14.9861 10.9438C14.8822 11.1612 14.6217 11.2533 14.4043 11.1494C14.1868 11.0456 14.0947 10.7851 14.1986 10.5676C14.3024 10.3501 14.5629 10.258 14.7804 10.3619C14.9978 10.4658 15.0899 10.7263 14.9861 10.9438ZM15.6309 9.59375C15.527 9.81121 15.2666 9.90327 15.0491 9.79938C14.8316 9.69558 14.7395 9.4351 14.8434 9.21755C14.9473 9.0001 15.2078 8.90804 15.4252 9.01192C15.6427 9.11581 15.7348 9.3763 15.6309 9.59375ZM16.719 9.62992L19.7002 11.0539C19.9177 11.1578 20.0098 11.4183 19.9059 11.6357C19.802 11.8533 19.5416 11.9453 19.3241 11.8414L16.3429 10.4174C16.1253 10.3135 16.0333 10.053 16.1372 9.83555C16.241 9.6181 16.5015 9.52604 16.719 9.62992Z" fill="#7A24E7"/>
<path fill-rule="evenodd" clip-rule="evenodd" d="M11.0527 13.8992C10.8153 14.3963 11.0257 14.9917 11.5228 15.2291L17.4291 18.0503C17.9262 18.2877 18.5215 18.0773 18.759 17.5802L22.0638 10.6615L14.3575 6.98047L11.0527 13.8992ZM17.82 14.9901L14.8387 13.5661C14.6213 13.4622 14.3608 13.5543 14.2569 13.7718C14.1531 13.9892 14.2452 14.2497 14.4626 14.3536L17.4438 15.7776C17.6613 15.8815 17.9218 15.7894 18.0257 15.5719C18.1296 15.3545 18.0375 15.094 17.82 14.9901ZM13.1688 13.7356C13.3863 13.8395 13.6468 13.7474 13.7507 13.53C13.8546 13.3124 13.7625 13.0519 13.545 12.9481C13.3276 12.8443 13.067 12.9363 12.9632 13.1538C12.8593 13.3712 12.9514 13.6317 13.1688 13.7356ZM18.4111 13.7526L15.4299 12.3286C15.2124 12.2247 14.952 12.3168 14.8481 12.5342C14.7442 12.7517 14.8362 13.0122 15.0537 13.1161L18.0349 14.5401C18.2524 14.644 18.513 14.5519 18.6168 14.3344C18.7206 14.1169 18.6286 13.8565 18.4111 13.7526ZM13.7599 12.4981C13.9774 12.6019 14.238 12.5099 14.3418 12.2924C14.4456 12.075 14.3536 11.8145 14.1361 11.7106C13.9187 11.6067 13.6582 11.6988 13.5543 11.9162C13.4504 12.1338 13.5425 12.3943 13.7599 12.4981ZM19.056 12.4026L16.0747 10.9786C15.8573 10.8747 15.5968 10.9668 15.4929 11.1842C15.389 11.4017 15.4811 11.6622 15.6985 11.7661L18.6798 13.1901C18.8973 13.294 19.1578 13.2019 19.2617 12.9844C19.3655 12.7669 19.2734 12.5065 19.056 12.4026ZM14.4048 11.1481C14.6223 11.2519 14.8828 11.1599 14.9867 10.9424C15.0905 10.725 14.9984 10.4645 14.781 10.3606C14.5635 10.2567 14.303 10.3488 14.1991 10.5662C14.0952 10.7838 14.1874 11.0443 14.4048 11.1481ZM15.0497 9.79805C15.2671 9.90194 15.5276 9.80988 15.6315 9.59242C15.7354 9.37497 15.6432 9.11448 15.4258 9.01059C15.2083 8.90671 14.9478 8.99877 14.844 9.21622C14.7401 9.43377 14.8322 9.69425 15.0497 9.79805ZM19.7008 11.0526L16.7196 9.62859C16.5021 9.52471 16.2416 9.61677 16.1377 9.83422C16.0338 10.0517 16.1259 10.3122 16.3434 10.4161L19.3247 11.8401C19.5421 11.944 19.8026 11.8519 19.9065 11.6344C20.0104 11.4169 19.9182 11.1565 19.7008 11.0526Z" fill="url(#paint0_linear_1692_26249)"/>
<path d="M6.45551 15.0795C6.37708 14.8516 6.49823 14.6033 6.72611 14.5249L9.85012 13.4497C10.078 13.3712 10.3264 13.4923 10.4048 13.7203C10.4832 13.9481 10.362 14.1964 10.1342 14.2748L7.01013 15.3501C6.78226 15.4285 6.53394 15.3073 6.45551 15.0795Z" fill="#7A24E7"/>
<path d="M5.92526 15.2632C6.00369 15.4911 5.88254 15.7394 5.65466 15.8178C5.42679 15.8962 5.17847 15.7751 5.10004 15.5472C5.02162 15.3194 5.14276 15.0711 5.37064 14.9926C5.59852 14.9142 5.84683 15.0353 5.92526 15.2632Z" fill="#7A24E7"/>
<path d="M6.0102 13.7826C5.93177 13.5547 6.05292 13.3064 6.2808 13.228L9.40481 12.1528C9.63273 12.0744 9.88104 12.1955 9.95947 12.4234C10.0379 12.6512 9.9167 12.8995 9.68887 12.978L6.56482 14.0532C6.33694 14.1317 6.08863 14.0105 6.0102 13.7826Z" fill="#7A24E7"/>
<path d="M5.47799 13.9664C5.55642 14.1942 5.43527 14.4425 5.20739 14.5209C4.97952 14.5994 4.73121 14.4782 4.65278 14.2503C4.57435 14.0225 4.6955 13.7742 4.92338 13.6958C5.15126 13.6173 5.39956 13.7384 5.47799 13.9664Z" fill="#7A24E7"/>
<path d="M5.52192 12.3685C5.44349 12.1407 5.56465 11.8924 5.79252 11.814L8.91656 10.7388C9.14448 10.6602 9.39279 10.7814 9.47122 11.0094C9.54965 11.2372 9.42845 11.4855 9.20062 11.5639L6.07654 12.6391C5.84866 12.7176 5.60035 12.5964 5.52192 12.3685Z" fill="#7A24E7"/>
<path d="M4.99167 12.5523C5.0701 12.7802 4.94894 13.0285 4.72107 13.1069C4.49319 13.1854 4.24488 13.0642 4.16645 12.8363C4.08802 12.6084 4.20918 12.3601 4.43705 12.2817C4.66493 12.2033 4.91324 12.3245 4.99167 12.5523Z" fill="#7A24E7"/>
<path d="M4.50534 11.1382C4.58377 11.3661 4.46262 11.6144 4.23474 11.6928C4.00686 11.7713 3.75855 11.6501 3.68013 11.4222C3.60169 11.1944 3.72285 10.9461 3.95073 10.8676C4.1786 10.7892 4.42691 10.9103 4.50534 11.1382Z" fill="#7A24E7"/>
<path d="M5.03559 10.9545C4.95716 10.7266 5.07831 10.4783 5.30619 10.3998L8.43023 9.32465C8.6581 9.24622 8.90641 9.36742 8.98484 9.59525C9.06327 9.82316 8.94215 10.0715 8.71424 10.1499L5.59021 11.2251C5.36233 11.3035 5.11402 11.1823 5.03559 10.9545Z" fill="#7A24E7"/>
<path fill-rule="evenodd" clip-rule="evenodd" d="M9.63775 6.79808C9.45844 6.27722 8.89092 6.0003 8.37004 6.17957L2.18089 8.30971C1.66003 8.48897 1.38311 9.0565 1.56238 9.57739L1.76525 10.1668L9.84064 7.38752L9.63775 6.79808ZM6.72623 14.5246L9.85024 13.4494C10.0782 13.371 10.3265 13.4921 10.4049 13.72C10.4833 13.9479 10.3621 14.1962 10.1343 14.2746L7.01024 15.3499C6.78237 15.4283 6.53405 15.3071 6.45563 15.0793C6.3772 14.8514 6.49835 14.6031 6.72623 14.5246ZM5.92512 15.2619C6.00355 15.4897 5.8824 15.738 5.65452 15.8164C5.42665 15.8949 5.17834 15.7738 5.09991 15.5458C5.02148 15.318 5.14263 15.0697 5.37051 14.9913C5.59839 14.9128 5.84669 15.034 5.92512 15.2619ZM6.27991 13.2279L9.40392 12.1527C9.63184 12.0742 9.88015 12.1954 9.95858 12.4233C10.037 12.6511 9.91581 12.8994 9.68798 12.9778L6.56393 14.0531C6.33605 14.1316 6.08774 14.0104 6.00931 13.7825C5.93088 13.5546 6.05203 13.3063 6.27991 13.2279ZM5.47881 13.9651C5.55724 14.1929 5.43609 14.4412 5.20821 14.5197C4.98034 14.5981 4.73202 14.477 4.65359 14.2491C4.57517 14.0212 4.69631 13.7729 4.92419 13.6945C5.15207 13.6161 5.40038 13.7372 5.47881 13.9651ZM5.79302 11.8132L8.91706 10.738C9.14498 10.6595 9.39329 10.7807 9.47172 11.0086C9.55015 11.2365 9.42895 11.4848 9.20112 11.5632L6.07704 12.6384C5.84916 12.7168 5.60085 12.5957 5.52242 12.3678C5.44399 12.14 5.56515 11.8917 5.79302 11.8132ZM4.99193 12.5504C5.07035 12.7783 4.9492 13.0266 4.72133 13.105C4.49345 13.1835 4.24513 13.0623 4.1667 12.8344C4.08827 12.6065 4.20943 12.3582 4.4373 12.2798C4.66518 12.2014 4.9135 12.3226 4.99193 12.5504ZM4.50503 11.1358C4.58346 11.3637 4.46231 11.6119 4.23443 11.6903C4.00655 11.7688 3.75825 11.6476 3.67982 11.4197C3.60138 11.1919 3.72254 10.9436 3.95042 10.8652C4.17829 10.7867 4.42661 10.9078 4.50503 11.1358ZM5.30614 10.3985L8.43017 9.32333C8.65804 9.2449 8.90635 9.3661 8.98478 9.59393C9.06321 9.82184 8.94209 10.0702 8.71418 10.1486L5.59015 11.2238C5.36227 11.3022 5.11397 11.181 5.03554 10.9532C4.9571 10.7253 5.07826 10.477 5.30614 10.3985Z" fill="#7A24E7"/>
<path fill-rule="evenodd" clip-rule="evenodd" d="M4.26093 17.4162C4.44019 17.9371 5.00777 18.2139 5.52863 18.0347L11.7177 15.9045C12.2386 15.7253 12.5156 15.1577 12.3362 14.6369L9.84102 7.38672L1.76562 10.166L4.26093 17.4162ZM9.85062 13.4486L6.7266 14.5238C6.49872 14.6023 6.37758 14.8506 6.45601 15.0785C6.53443 15.3063 6.78275 15.4275 7.01062 15.3491L10.1347 14.2738C10.3625 14.1954 10.4837 13.9471 10.4053 13.7192C10.3268 13.4913 10.0785 13.3702 9.85062 13.4486ZM5.6549 15.8156C5.88278 15.7372 6.00393 15.4889 5.9255 15.2611C5.84707 15.0332 5.59877 14.912 5.37089 14.9905C5.14301 15.0689 5.02186 15.3172 5.10029 15.545C5.17872 15.773 5.42703 15.8941 5.6549 15.8156ZM9.4043 12.1519L6.28029 13.2271C6.05241 13.3055 5.93126 13.5538 6.00969 13.7817C6.08812 14.0096 6.33643 14.1308 6.5643 14.0523L9.68836 12.977C9.91619 12.8986 10.0374 12.6503 9.95896 12.4225C9.88053 12.1946 9.63222 12.0734 9.4043 12.1519ZM5.20859 14.5189C5.43647 14.4404 5.55762 14.1921 5.47919 13.9643C5.40076 13.7364 5.15245 13.6153 4.92457 13.6937C4.69669 13.7721 4.57555 14.0204 4.65397 14.2483C4.7324 14.4762 4.98072 14.5973 5.20859 14.5189ZM8.91744 10.7372L5.7934 11.8124C5.56553 11.8909 5.44437 12.1392 5.5228 12.367C5.60123 12.5949 5.84954 12.716 6.07742 12.6376L9.2015 11.5624C9.42933 11.484 9.55053 11.2357 9.4721 11.0078C9.39367 10.7799 9.14536 10.6587 8.91744 10.7372ZM4.7217 13.1042C4.94958 13.0258 5.07073 12.7775 4.99231 12.5496C4.91388 12.3218 4.66556 12.2006 4.43768 12.279C4.20981 12.3574 4.08865 12.6057 4.16708 12.8336C4.24551 13.0615 4.49382 13.1827 4.7217 13.1042ZM4.23481 11.6895C4.46269 11.6111 4.58384 11.3629 4.50541 11.135C4.42698 10.907 4.17867 10.7859 3.9508 10.8644C3.72292 10.9428 3.60176 11.1911 3.6802 11.4189C3.75863 11.6468 4.00693 11.768 4.23481 11.6895ZM8.43055 9.32252L5.30652 10.3977C5.07864 10.4762 4.95748 10.7245 5.03592 10.9524C5.11435 11.1802 5.36265 11.3014 5.59053 11.223L8.71456 10.1478C8.94247 10.0694 9.06359 9.82104 8.98516 9.59312C8.90673 9.3653 8.65842 9.2441 8.43055 9.32252Z" fill="url(#paint1_linear_1692_26249)"/>
<path d="M10.2012 13.3114C10.2012 13.0703 10.3965 12.875 10.6375 12.875H13.9414C14.1824 12.875 14.3778 13.0703 14.3778 13.3114C14.3778 13.5523 14.1824 13.7477 13.9414 13.7477H10.6375C10.3965 13.7477 10.2012 13.5523 10.2012 13.3114Z" fill="#7A24E7"/>
<path d="M9.64032 13.3114C9.64032 13.5523 9.44498 13.7477 9.20395 13.7477C8.96301 13.7477 8.76758 13.5523 8.76758 13.3114C8.76758 13.0703 8.96301 12.875 9.20395 12.875C9.44498 12.875 9.64032 13.0703 9.64032 13.3114Z" fill="#7A24E7"/>
<path d="M10.2012 11.9403C10.2012 11.6992 10.3965 11.5039 10.6375 11.5039H13.9414C14.1824 11.5039 14.3778 11.6992 14.3778 11.9403C14.3778 12.1812 14.1824 12.3766 13.9414 12.3766H10.6375C10.3965 12.3766 10.2012 12.1812 10.2012 11.9403Z" fill="#7A24E7"/>
<path d="M9.64032 11.9403C9.64032 12.1812 9.44498 12.3766 9.20395 12.3766C8.96301 12.3766 8.76758 12.1812 8.76758 11.9403C8.76758 11.6992 8.96301 11.5039 9.20395 11.5039C9.44498 11.5039 9.64032 11.6992 9.64032 11.9403Z" fill="#7A24E7"/>
<path d="M10.2012 10.4442C10.2012 10.2032 10.3965 10.0078 10.6375 10.0078H13.9414C14.1824 10.0078 14.3778 10.2032 14.3778 10.4442C14.3778 10.6852 14.1824 10.8806 13.9414 10.8806H10.6375C10.3965 10.8806 10.2012 10.6852 10.2012 10.4442Z" fill="#7A24E7"/>
<path d="M9.64032 10.4442C9.64032 10.6852 9.44498 10.8806 9.20395 10.8806C8.96301 10.8806 8.76758 10.6852 8.76758 10.4442C8.76758 10.2032 8.96301 10.0078 9.20395 10.0078C9.44498 10.0078 9.64032 10.2032 9.64032 10.4442Z" fill="#7A24E7"/>
<path d="M9.64032 8.94811C9.64032 9.18905 9.44498 9.38448 9.20395 9.38448C8.96301 9.38448 8.76758 9.18905 8.76758 8.94811C8.76758 8.70708 8.96301 8.51172 9.20395 8.51172C9.44498 8.51172 9.64032 8.70708 9.64032 8.94811Z" fill="#7A24E7"/>
<path d="M10.2012 8.94811C10.2012 8.70708 10.3965 8.51172 10.6375 8.51172H13.9414C14.1824 8.51172 14.3778 8.70708 14.3778 8.94811C14.3778 9.18905 14.1824 9.38448 13.9414 9.38448H10.6375C10.3965 9.38448 10.2012 9.18905 10.2012 8.94811Z" fill="#7A24E7"/>
<path fill-rule="evenodd" clip-rule="evenodd" d="M15.9055 6.51694C15.9055 5.96609 15.4589 5.51953 14.9081 5.51953H8.36264C7.81179 5.51953 7.36523 5.96609 7.36523 6.51694V7.14031H15.9055V6.51694ZM10.638 12.8754H13.9419C14.1829 12.8754 14.3782 13.0707 14.3782 13.3118C14.3782 13.5527 14.1829 13.7481 13.9419 13.7481H10.638C10.397 13.7481 10.2016 13.5527 10.2016 13.3118C10.2016 13.0707 10.397 12.8754 10.638 12.8754ZM9.64055 13.3118C9.64055 13.5527 9.4452 13.7481 9.20417 13.7481C8.96323 13.7481 8.7678 13.5527 8.7678 13.3118C8.7678 13.0707 8.96323 12.8754 9.20417 12.8754C9.4452 12.8754 9.64055 13.0707 9.64055 13.3118ZM10.638 11.504H13.9419C14.1829 11.504 14.3782 11.6993 14.3782 11.9403C14.3782 12.1813 14.1829 12.3767 13.9419 12.3767H10.638C10.397 12.3767 10.2016 12.1813 10.2016 11.9403C10.2016 11.6993 10.397 11.504 10.638 11.504ZM9.64055 11.9403C9.64055 12.1813 9.4452 12.3767 9.20417 12.3767C8.96323 12.3767 8.7678 12.1813 8.7678 11.9403C8.7678 11.6993 8.96323 11.504 9.20417 11.504C9.4452 11.504 9.64055 11.6993 9.64055 11.9403ZM10.638 10.0078H13.9419C14.1829 10.0078 14.3782 10.2032 14.3782 10.4442C14.3782 10.6852 14.1829 10.8806 13.9419 10.8806H10.638C10.397 10.8806 10.2016 10.6852 10.2016 10.4442C10.2016 10.2032 10.397 10.0078 10.638 10.0078ZM9.64055 10.4442C9.64055 10.6852 9.4452 10.8806 9.20417 10.8806C8.96323 10.8806 8.7678 10.6852 8.7678 10.4442C8.7678 10.2032 8.96323 10.0078 9.20417 10.0078C9.4452 10.0078 9.64055 10.2032 9.64055 10.4442ZM9.64055 8.94813C9.64055 9.18907 9.4452 9.3845 9.20417 9.3845C8.96323 9.3845 8.7678 9.18907 8.7678 8.94813C8.7678 8.7071 8.96323 8.51174 9.20417 8.51174C9.4452 8.51174 9.64055 8.7071 9.64055 8.94813ZM10.638 8.51174H13.9419C14.1829 8.51174 14.3782 8.7071 14.3782 8.94813C14.3782 9.18907 14.1829 9.3845 13.9419 9.3845H10.638C10.397 9.3845 10.2016 9.18907 10.2016 8.94813C10.2016 8.7071 10.397 8.51174 10.638 8.51174Z" fill="#7A24E7"/>
<path fill-rule="evenodd" clip-rule="evenodd" d="M7.36523 14.8081C7.36523 15.359 7.81179 15.8056 8.36263 15.8056H14.9081C15.4589 15.8056 15.9055 15.359 15.9055 14.8081V7.14062H7.36523V14.8081ZM13.9419 12.8757H10.638C10.397 12.8757 10.2016 13.071 10.2016 13.3121C10.2016 13.553 10.397 13.7484 10.638 13.7484H13.9419C14.1829 13.7484 14.3782 13.553 14.3782 13.3121C14.3782 13.071 14.1829 12.8757 13.9419 12.8757ZM9.20417 13.7484C9.4452 13.7484 9.64055 13.553 9.64055 13.3121C9.64055 13.071 9.4452 12.8757 9.20417 12.8757C8.96323 12.8757 8.7678 13.071 8.7678 13.3121C8.7678 13.553 8.96323 13.7484 9.20417 13.7484ZM13.9419 11.5043H10.638C10.397 11.5043 10.2016 11.6996 10.2016 11.9406C10.2016 12.1816 10.397 12.377 10.638 12.377H13.9419C14.1829 12.377 14.3782 12.1816 14.3782 11.9406C14.3782 11.6996 14.1829 11.5043 13.9419 11.5043ZM9.20417 12.377C9.4452 12.377 9.64055 12.1816 9.64055 11.9406C9.64055 11.6996 9.4452 11.5043 9.20417 11.5043C8.96323 11.5043 8.7678 11.6996 8.7678 11.9406C8.7678 12.1816 8.96323 12.377 9.20417 12.377ZM13.9419 10.0081H10.638C10.397 10.0081 10.2016 10.2036 10.2016 10.4445C10.2016 10.6855 10.397 10.8809 10.638 10.8809H13.9419C14.1829 10.8809 14.3782 10.6855 14.3782 10.4445C14.3782 10.2036 14.1829 10.0081 13.9419 10.0081ZM9.20417 10.8809C9.4452 10.8809 9.64055 10.6855 9.64055 10.4445C9.64055 10.2036 9.4452 10.0081 9.20417 10.0081C8.96323 10.0081 8.7678 10.2036 8.7678 10.4445C8.7678 10.6855 8.96323 10.8809 9.20417 10.8809ZM9.20417 9.38481C9.4452 9.38481 9.64055 9.18939 9.64055 8.94844C9.64055 8.70741 9.4452 8.51205 9.20417 8.51205C8.96323 8.51205 8.7678 8.70741 8.7678 8.94844C8.7678 9.18939 8.96323 9.38481 9.20417 9.38481ZM13.9419 8.51205H10.638C10.397 8.51205 10.2016 8.70741 10.2016 8.94844C10.2016 9.18939 10.397 9.38481 10.638 9.38481H13.9419C14.1829 9.38481 14.3782 9.18939 14.3782 8.94844C14.3782 8.70741 14.1829 8.51205 13.9419 8.51205Z" fill="url(#paint2_linear_1692_26249)"/>
<defs>
<linearGradient id="paint0_linear_1692_26249" x1="18.9092" y1="7.35847" x2="14.4759" y2="16.6397" gradientUnits="userSpaceOnUse">
<stop stop-color="white"/>
<stop offset="1" stop-color="#D4BBF5"/>
</linearGradient>
<linearGradient id="paint1_linear_1692_26249" x1="5.27585" y1="7.24383" x2="8.62319" y2="16.9696" gradientUnits="userSpaceOnUse">
<stop stop-color="white"/>
<stop offset="1" stop-color="#D4BBF5"/>
</linearGradient>
<linearGradient id="paint2_linear_1692_26249" x1="11.6354" y1="5.51984" x2="11.6354" y2="15.8056" gradientUnits="userSpaceOnUse">
<stop stop-color="white"/>
<stop offset="1" stop-color="#D4BBF5"/>
</linearGradient>
</defs>
</svg>
