<svg width="24" height="24" viewBox="0 0 24 24" fill="none" xmlns="http://www.w3.org/2000/svg">
<path d="M18.8826 1.39844H3.63544C1.86387 1.39844 0.427734 2.83457 0.427734 4.60614V19.3937C0.427734 21.1653 1.86387 22.6014 3.63544 22.6014H18.8826C20.6542 22.6014 22.0903 21.1653 22.0903 19.3937V4.60614C22.0903 2.83457 20.6542 1.39844 18.8826 1.39844Z" fill="url(#paint0_radial_1692_26108)"/>
<path d="M15.5539 15.7689C15.5539 17.2119 13.0195 18.3815 9.89315 18.3815C6.76682 18.3815 4.23242 17.2119 4.23242 15.7689C4.23242 14.326 6.76682 13.1562 9.89315 13.1562C13.0195 13.1562 15.5539 14.326 15.5539 15.7689Z" fill="url(#paint1_linear_1692_26108)"/>
<path d="M15.5539 15.7695C15.5539 17.2125 13.0195 18.3822 9.89315 18.3822C6.76682 18.3822 4.23242 17.2125 4.23242 15.7695V17.5113C4.23242 18.9542 6.76682 20.1239 9.89315 20.1239C13.0195 20.1239 15.5539 18.9542 15.5539 17.5113V15.7695Z" fill="#7825E5"/>
<path d="M4.33008 16.4761C4.60234 16.9593 5.14471 17.3794 5.85051 17.7051C6.8903 18.1851 8.31992 18.4793 9.89381 18.4793C11.4677 18.4793 12.8975 18.1851 13.9373 17.7051C14.643 17.3794 15.1852 16.9594 15.4575 16.4762V17.5114C15.4575 18.1721 14.8731 18.8012 13.8559 19.2706C12.8469 19.7364 11.4462 20.0269 9.89381 20.0269C8.34146 20.0269 6.94083 19.7364 5.93187 19.2706C4.91465 18.8012 4.33008 18.1721 4.33008 17.5114V16.4761ZM9.89381 13.2539C11.4462 13.2539 12.8469 13.5446 13.8559 14.0103C14.8731 14.4798 15.4575 15.1088 15.4575 15.7696C15.4575 16.4304 14.8731 17.0594 13.8559 17.5289C12.8469 17.9947 11.4462 18.2852 9.89381 18.2852C8.34147 18.2852 6.94083 17.9945 5.93187 17.5289C4.91465 17.0594 4.33008 16.4304 4.33008 15.7696C4.3301 15.1088 4.91467 14.4798 5.93187 14.0103C6.94083 13.5446 8.34147 13.2539 9.89381 13.2539Z" stroke="#601CB9" stroke-width="0.194023"/>
<path d="M15.1183 13.0931C15.1183 14.536 12.5839 15.7058 9.45762 15.7058C6.33127 15.7058 3.79688 14.536 3.79688 13.0931C3.79688 11.6502 6.33127 10.4805 9.45762 10.4805C12.5839 10.4805 15.1183 11.6502 15.1183 13.0931Z" fill="url(#paint2_linear_1692_26108)"/>
<path d="M15.1183 13.0938C15.1183 14.5367 12.5839 15.7064 9.45762 15.7064C6.33127 15.7064 3.79688 14.5367 3.79688 13.0938V14.8355C3.79688 16.2784 6.33127 17.4482 9.45762 17.4482C12.5839 17.4482 15.1183 16.2784 15.1183 14.8355V13.0938Z" fill="#7825E5"/>
<path d="M3.89453 13.8003C4.16679 14.2835 4.70914 14.7037 5.41495 15.0294C6.45473 15.5093 7.88436 15.8035 9.45825 15.8035C11.0322 15.8035 12.4619 15.5093 13.5017 15.0294C14.2074 14.7037 14.7497 14.2836 15.022 13.8005V14.8356C15.022 15.4964 14.4376 16.1254 13.4204 16.5949C12.4114 17.0606 11.0107 17.3512 9.45825 17.3512C7.90591 17.3512 6.50527 17.0605 5.49631 16.5949C4.47909 16.1254 3.89453 15.4964 3.89453 14.8356V13.8003ZM9.45825 10.5781C11.0106 10.5781 12.4114 10.8688 13.4204 11.3345C14.4376 11.804 15.022 12.433 15.022 13.0938C15.022 13.7546 14.4376 14.3837 13.4204 14.8531C12.4114 15.3188 11.0106 15.6095 9.45825 15.6095C7.90591 15.6095 6.50527 15.3188 5.49631 14.8531C4.47909 14.3837 3.89453 13.7546 3.89453 13.0938C3.89455 12.433 4.4791 11.804 5.49631 11.3345C6.50527 10.8688 7.90593 10.5781 9.45825 10.5781Z" stroke="#601CB9" stroke-width="0.194023"/>
<path d="M14.3097 11.2259C14.3097 12.6689 11.7753 13.8386 8.64901 13.8386C5.52268 13.8386 2.98828 12.6689 2.98828 11.2259C2.98828 9.78301 5.52268 8.61328 8.64901 8.61328C11.7753 8.61328 14.3097 9.78301 14.3097 11.2259Z" fill="url(#paint3_linear_1692_26108)"/>
<path d="M14.3097 11.2266C14.3097 12.6695 11.7753 13.8392 8.64901 13.8392C5.52268 13.8392 2.98828 12.6695 2.98828 11.2266V12.9683C2.98828 14.4113 5.52268 15.581 8.64901 15.581C11.7753 15.581 14.3097 14.4113 14.3097 12.9683V11.2266Z" fill="#7825E5"/>
<path d="M6.06836 11.4754C6.06836 11.338 6.17977 11.2266 6.31719 11.2266H8.681C8.81843 11.2266 8.92983 11.338 8.92983 11.4754C8.92983 11.6128 8.81843 11.7242 8.681 11.7242H6.31719C6.17977 11.7242 6.06836 11.6128 6.06836 11.4754Z" fill="#7825E5"/>
<path d="M6.78274 10.2012C6.83333 10.1355 6.90235 10.1039 6.93691 10.1305L7.5313 10.5885C7.56586 10.6152 7.55287 10.69 7.50228 10.7556C7.45169 10.8213 7.38267 10.8529 7.34811 10.8263L6.75372 10.3683C6.71916 10.3416 6.73215 10.2668 6.78274 10.2012Z" fill="#7825E5"/>
<path d="M3.08594 11.9331C3.3582 12.4163 3.90057 12.8365 4.60637 13.1622C5.64615 13.6421 7.07578 13.9363 8.64967 13.9363C10.2236 13.9363 11.6533 13.6421 12.6931 13.1622C13.3989 12.8365 13.9411 12.4164 14.2134 11.9333V12.9684C14.2134 13.6292 13.629 14.2582 12.6118 14.7277C11.6028 15.1934 10.2021 15.484 8.64967 15.484C7.09731 15.484 5.69669 15.1934 4.68773 14.7277C3.67051 14.2582 3.08594 13.6292 3.08594 12.9684V11.9331ZM8.64967 8.71094C10.202 8.71094 11.6028 9.00163 12.6118 9.4673C13.629 9.93679 14.2134 10.5658 14.2134 11.2266C14.2134 11.8874 13.629 12.5165 12.6118 12.9859C11.6028 13.4516 10.2021 13.7423 8.64967 13.7423C7.09733 13.7423 5.69669 13.4516 4.68773 12.9859C3.67051 12.5165 3.08594 11.8874 3.08594 11.2266C3.08595 10.5658 3.67053 9.93679 4.68773 9.4673C5.69669 9.00165 7.09733 8.71095 8.64967 8.71094ZM8.83265 11.4754C8.83265 11.5592 8.76465 11.6272 8.6808 11.6272H6.31697C6.23314 11.6272 6.16512 11.5592 6.16512 11.4754C6.16517 11.3916 6.23318 11.3237 6.31697 11.3237H8.6808C8.76463 11.3237 8.8326 11.3916 8.83265 11.4754ZM6.97406 10.0383C6.91982 10.0109 6.8615 10.026 6.82623 10.0422C6.78137 10.0628 6.73961 10.0983 6.7067 10.141C6.67378 10.1837 6.65004 10.2331 6.64157 10.2818C6.63399 10.3254 6.63535 10.3979 6.69531 10.4441L7.28979 10.9022C7.34974 10.9484 7.4201 10.9313 7.46038 10.9129C7.50526 10.8923 7.54699 10.8567 7.57992 10.814C7.61283 10.7712 7.63675 10.7218 7.6452 10.6732C7.65279 10.6295 7.6513 10.557 7.5913 10.5108L6.99699 10.0527L6.97406 10.0383ZM7.45167 10.648C7.44801 10.6602 7.44031 10.6772 7.42623 10.6954C7.41216 10.7137 7.39766 10.7254 7.38689 10.7321L6.83477 10.3067C6.83846 10.2946 6.84636 10.2777 6.86038 10.2595C6.87442 10.2413 6.88879 10.2293 6.89955 10.2227L7.45167 10.648ZM9.02667 11.4754C9.02664 11.2844 8.87177 11.1297 8.6808 11.1297H6.31697C6.12602 11.1297 5.9713 11.2845 5.97127 11.4754C5.97127 11.6664 6.126 11.8212 6.31697 11.8213H8.6808C8.87181 11.8213 9.02667 11.6664 9.02667 11.4754Z" stroke="#601CB9" stroke-width="0.194023"/>
<path d="M8.31692 8.22894L11.1401 10.8377C11.1992 10.8923 11.2466 10.9549 11.2821 11.0222L11.2959 10.5C11.2643 10.4793 11.2339 10.4556 11.2052 10.4291L8.76123 8.17079C8.73251 8.14427 8.70656 8.11585 8.6834 8.08594L8.17578 8.12806C8.22579 8.15499 8.27326 8.18861 8.31692 8.22894Z" fill="#C4A6EC"/>
<path d="M11.9938 4.67374L14.4378 6.93205L14.9242 6.91285L11.9114 4.12891L11.8262 4.55931C11.8859 4.58821 11.9425 4.62634 11.9938 4.67374Z" fill="#C4A5EC"/>
<path d="M7.34443 8.26811L7.18869 8.43666C6.93064 8.71593 6.94783 9.1515 7.22709 9.40955L10.0503 12.0183C10.3296 12.2763 10.7651 12.2592 11.0232 11.9799L11.1789 11.8113C11.3824 11.5912 11.4147 11.2739 11.2825 11.023C11.247 10.9556 11.1996 10.8931 11.1405 10.8385L8.31732 8.22971C8.27366 8.18937 8.22619 8.15575 8.17619 8.12882C7.90622 7.98343 7.56215 8.0325 7.34443 8.26811Z" fill="url(#paint4_linear_1692_26108)"/>
<path d="M11.0211 4.71343L8.72384 7.19954C8.49233 7.45008 8.48237 7.82645 8.68443 8.08755C8.70759 8.11747 8.73354 8.14589 8.76226 8.17241L11.2062 10.4307C11.2349 10.4573 11.2653 10.4809 11.2969 10.5016C11.5732 10.6825 11.9476 10.6429 12.1791 10.3923L12.8371 9.73366C12.6356 9.79603 13.448 8.59642 13.9543 8.51324L14.4763 7.90622C14.7344 7.62696 14.7172 7.19137 14.4379 6.93332L11.994 4.67501C11.9427 4.62761 11.8861 4.58948 11.8263 4.56058C11.5607 4.43213 11.2317 4.48546 11.0211 4.71343Z" fill="url(#paint5_linear_1692_26108)"/>
<path d="M13.1271 3.06508C12.8368 2.79679 12.3839 2.81467 12.1156 3.10502L11.8811 3.35884C11.6768 3.57993 11.6904 3.92476 11.9115 4.12905L14.9243 6.913C15.157 7.12804 15.52 7.11371 15.735 6.88099L15.9501 6.64824C16.2184 6.35789 16.2005 5.90503 15.9102 5.63675L13.1271 3.06508Z" fill="#D9D9D9"/>
<path d="M13.1271 3.06508C12.8368 2.79679 12.3839 2.81467 12.1156 3.10502L11.8811 3.35884C11.6768 3.57993 11.6904 3.92476 11.9115 4.12905L14.9243 6.913C15.157 7.12804 15.52 7.11371 15.735 6.88099L15.9501 6.64824C16.2184 6.35789 16.2005 5.90503 15.9102 5.63675L13.1271 3.06508Z" fill="url(#paint6_linear_1692_26108)"/>
<path d="M20.9314 14.4379L13.9534 8.51172C13.4471 8.5949 12.6347 9.7945 12.8362 9.73214L19.3556 16.1386C19.5565 16.3361 19.861 16.397 20.1078 16.2614C20.6108 15.9855 20.8947 15.6822 21.1206 15.1715C21.2341 14.9153 21.145 14.6193 20.9314 14.4379Z" fill="#D9D9D9"/>
<path d="M20.9314 14.4379L13.9534 8.51172C13.4471 8.5949 12.6347 9.7945 12.8362 9.73214L19.3556 16.1386C19.5565 16.3361 19.861 16.397 20.1078 16.2614C20.6108 15.9855 20.8947 15.6822 21.1206 15.1715C21.2341 14.9153 21.145 14.6193 20.9314 14.4379Z" fill="url(#paint7_linear_1692_26108)"/>
<path d="M13.2 9.23314C13.3182 9.08489 13.457 8.93352 13.5957 8.8151C13.7199 8.70893 13.8354 8.63688 13.9303 8.60961L20.8743 14.5069C21.0622 14.6664 21.1347 14.9212 21.0396 15.1361C20.8219 15.628 20.5519 15.9169 20.0655 16.1837C19.8578 16.2979 19.5956 16.249 19.4191 16.0755L12.9077 9.67723C12.9139 9.66281 12.9224 9.64447 12.9342 9.62215C12.9866 9.52361 13.0816 9.38169 13.2 9.23314ZM7.25472 8.49749L7.41048 8.32893C7.59982 8.12402 7.89939 8.0812 8.13428 8.20769C8.17767 8.23108 8.21888 8.26036 8.25692 8.2955L11.0802 10.9043C11.1317 10.9519 11.1729 11.0063 11.2037 11.0647C11.3188 11.2831 11.2905 11.5593 11.1136 11.7508L10.9579 11.9193C10.7334 12.1623 10.3544 12.1772 10.1114 11.9528L7.28813 9.34394C7.04523 9.11944 7.03028 8.74044 7.25472 8.49749ZM11.9466 3.41993L12.1812 3.16603C12.4159 2.91201 12.8123 2.89646 13.0663 3.13121L15.8494 5.70288C16.1034 5.93764 16.119 6.33386 15.8843 6.5879L15.6693 6.82065C15.4878 7.01707 15.1813 7.02917 14.9849 6.84766L11.9721 4.06377L11.9394 4.03034C11.7866 3.85732 11.7866 3.59316 11.9466 3.41993ZM8.78931 7.25956L11.0866 4.7734C11.2698 4.57517 11.556 4.52853 11.7872 4.6403C11.8391 4.66541 11.8883 4.69864 11.9331 4.73998L14.377 6.99832C14.62 7.22284 14.635 7.6018 14.4104 7.84476L14.408 7.84747L14.4052 7.85066L14.4047 7.85128C14.4037 7.85237 14.4026 7.85369 14.4013 7.8552L13.906 8.43108C13.7642 8.46472 13.6156 8.56281 13.4795 8.67905C13.3298 8.80697 13.1832 8.96729 13.0602 9.12151C12.9374 9.27545 12.8354 9.42694 12.7762 9.53836C12.7481 9.59121 12.7241 9.64529 12.7177 9.68899C12.7166 9.69662 12.7153 9.71023 12.7169 9.72634L12.1155 10.3283L12.1131 10.3309C11.9118 10.5488 11.586 10.5833 11.3458 10.426C11.3183 10.408 11.2918 10.3875 11.2667 10.3643L8.82272 8.106C8.79766 8.08286 8.77513 8.05804 8.75499 8.03203C8.57924 7.80494 8.58798 7.47748 8.78931 7.25956ZM8.64533 8.17982C8.66286 8.19972 8.68152 8.21896 8.70138 8.23732L11.1454 10.4956C11.1649 10.5137 11.1852 10.5305 11.206 10.5462L11.2001 10.7714L8.41601 8.19883L8.64533 8.17982ZM12.0545 4.60855C12.0145 4.57162 11.9714 4.54005 11.9265 4.51303L11.9679 4.3036L14.7047 6.83244L14.4712 6.84165L12.0545 4.60855Z" stroke="url(#paint8_linear_1692_26108)" stroke-width="0.178947"/>
<defs>
<radialGradient id="paint0_radial_1692_26108" cx="0" cy="0" r="1" gradientUnits="userSpaceOnUse" gradientTransform="translate(11.259 12.0327) rotate(90) scale(10.5687 10.7977)">
<stop stop-color="#C1A0EC" stop-opacity="0.59"/>
<stop offset="1" stop-color="#6E5B86" stop-opacity="0"/>
</radialGradient>
<linearGradient id="paint1_linear_1692_26108" x1="9.89315" y1="13.1562" x2="9.89315" y2="20.1232" gradientUnits="userSpaceOnUse">
<stop offset="0.394231" stop-color="#C5A7EC"/>
<stop offset="1" stop-color="#632EAA"/>
</linearGradient>
<linearGradient id="paint2_linear_1692_26108" x1="9.4576" y1="10.4805" x2="9.4576" y2="17.4475" gradientUnits="userSpaceOnUse">
<stop offset="0.394231" stop-color="#C5A7EC"/>
<stop offset="1" stop-color="#632EAA"/>
</linearGradient>
<linearGradient id="paint3_linear_1692_26108" x1="8.64901" y1="8.61328" x2="8.64901" y2="15.5803" gradientUnits="userSpaceOnUse">
<stop offset="0.394231" stop-color="#C5A7EC"/>
<stop offset="1" stop-color="#632EAA"/>
</linearGradient>
<linearGradient id="paint4_linear_1692_26108" x1="9.66115" y1="5.76095" x2="20.6322" y2="15.8985" gradientUnits="userSpaceOnUse">
<stop stop-color="#AC8AD9"/>
<stop offset="0.25" stop-color="#7825E5"/>
</linearGradient>
<linearGradient id="paint5_linear_1692_26108" x1="9.66178" y1="5.7618" x2="20.6328" y2="15.8994" gradientUnits="userSpaceOnUse">
<stop stop-color="#CBB1EC"/>
<stop offset="0.846154" stop-color="#7825E5"/>
</linearGradient>
<linearGradient id="paint6_linear_1692_26108" x1="9.66168" y1="5.76067" x2="20.6327" y2="15.8983" gradientUnits="userSpaceOnUse">
<stop stop-color="#AC8AD9"/>
<stop offset="0.25" stop-color="#7825E5"/>
</linearGradient>
<linearGradient id="paint7_linear_1692_26108" x1="9.66087" y1="5.76027" x2="20.6319" y2="15.8979" gradientUnits="userSpaceOnUse">
<stop stop-color="#6905ED"/>
<stop offset="1" stop-color="#CBB1EC"/>
</linearGradient>
<linearGradient id="paint8_linear_1692_26108" x1="9.66157" y1="5.76105" x2="20.6326" y2="15.8986" gradientUnits="userSpaceOnUse">
<stop stop-color="#7825E5"/>
<stop offset="0.413462" stop-color="#B583F6"/>
</linearGradient>
</defs>
</svg>
