<svg width="24" height="24" viewBox="0 0 24 24" fill="none" xmlns="http://www.w3.org/2000/svg">
<path d="M19.3203 1.55469H4.05401C2.37488 1.55469 1.01367 2.91589 1.01367 4.59502V19.4086C1.01367 21.0877 2.37488 22.4489 4.05401 22.4489H19.3203C20.9994 22.4489 22.3606 21.0877 22.3606 19.4086V4.59502C22.3606 2.91589 20.9994 1.55469 19.3203 1.55469Z" fill="url(#paint0_radial_1692_26082)"/>
<path d="M5.78804 9.08703L8.97123 12.0284C9.03787 12.09 9.09127 12.1605 9.13129 12.2365L9.1469 11.6477C9.1112 11.6243 9.07697 11.5977 9.04459 11.5678L6.28899 9.02147C6.25663 8.99156 6.22738 8.95952 6.20125 8.92578L5.62891 8.97328C5.68531 9.00366 5.73883 9.04155 5.78804 9.08703Z" fill="#C4A6EC"/>
<path d="M9.93319 5.07916L12.6888 7.62544L13.2373 7.60379L9.84026 4.46484L9.74414 4.95014C9.81155 4.98273 9.87534 5.02571 9.93319 5.07916Z" fill="#C4A5EC"/>
<path d="M4.69034 9.13225L4.51473 9.32229C4.22378 9.63716 4.24317 10.1283 4.55803 10.4192L7.74122 13.3606C8.0561 13.6516 8.54721 13.6322 8.83816 13.3173L9.01377 13.1273C9.24314 12.879 9.27964 12.5213 9.13053 12.2384C9.0905 12.1624 9.0371 12.0919 8.97047 12.0303L5.78728 9.08895C5.73806 9.04347 5.68454 9.00558 5.62814 8.9752C5.32377 8.81128 4.93581 8.8666 4.69034 9.13225Z" fill="url(#paint1_linear_1692_26082)"/>
<path d="M8.83538 5.12055L6.2452 7.92365C5.98416 8.20614 5.97293 8.6305 6.20076 8.92489C6.22689 8.95863 6.25614 8.99067 6.2885 9.02059L9.0441 11.5669C9.07648 11.5968 9.11071 11.6234 9.1464 11.6468C9.45786 11.8507 9.88 11.806 10.141 11.5235L10.8829 10.7809C10.6557 10.8512 11.5717 9.49865 12.1426 9.40486L12.7312 8.72045C13.0222 8.40557 13.0028 7.91446 12.6879 7.62351L9.93232 5.07723C9.87446 5.02378 9.81067 4.9808 9.74327 4.94821C9.44375 4.80337 9.07288 4.86351 8.83538 5.12055Z" fill="url(#paint2_linear_1692_26082)"/>
<path d="M11.1881 3.2452C10.8732 2.95425 10.3821 2.97364 10.0911 3.2885L9.80576 3.59733C9.57543 3.8466 9.59079 4.2354 9.84005 4.46574L13.237 7.60468C13.4994 7.84713 13.9087 7.83098 14.1512 7.56858L14.4146 7.28352C14.7055 6.96864 14.6861 6.47754 14.3712 6.18659L11.1881 3.2452Z" fill="#D9D9D9"/>
<path d="M11.1881 3.2452C10.8732 2.95425 10.3821 2.97364 10.0911 3.2885L9.80576 3.59733C9.57543 3.8466 9.59079 4.2354 9.84005 4.46574L13.237 7.60468C13.4994 7.84713 13.9087 7.83098 14.1512 7.56858L14.4146 7.28352C14.7055 6.96864 14.6861 6.47754 14.3712 6.18659L11.1881 3.2452Z" fill="url(#paint3_linear_1692_26082)"/>
<path d="M20.0107 16.0881L12.1429 9.40625C11.572 9.50004 10.656 10.8526 10.8831 10.7823L18.234 18.0057C18.4605 18.2282 18.8037 18.297 19.0821 18.1442C19.649 17.8331 19.9691 17.4911 20.224 16.9153C20.3519 16.6263 20.2516 16.2926 20.0107 16.0881Z" fill="#D9D9D9"/>
<path d="M20.0107 16.0881L12.1429 9.40625C11.572 9.50004 10.656 10.8526 10.8831 10.7823L18.234 18.0057C18.4605 18.2282 18.8037 18.297 19.0821 18.1442C19.649 17.8331 19.9691 17.4911 20.224 16.9153C20.3519 16.6263 20.2516 16.2926 20.0107 16.0881Z" fill="url(#paint4_linear_1692_26082)"/>
<path d="M11.2897 10.2183C11.4231 10.051 11.5797 9.88031 11.7363 9.74658C11.8774 9.62607 12.0088 9.544 12.117 9.51344C13.6478 10.8135 15.596 12.4682 17.1662 13.8017L19.1505 15.4869C19.3993 15.6982 19.5988 15.8676 19.736 15.984C19.8044 16.0422 19.8573 16.0871 19.8933 16.1176C19.9113 16.1329 19.9249 16.1445 19.9341 16.1523C19.9386 16.1561 19.9424 16.1592 19.9446 16.161L19.9475 16.1638L19.948 16.164C20.1609 16.3448 20.2432 16.6339 20.1352 16.878C19.8894 17.4334 19.5846 17.7596 19.0353 18.061C18.7993 18.1906 18.5022 18.1351 18.3021 17.9384L10.9584 10.7223C10.9655 10.7056 10.9756 10.6841 10.9896 10.6577C11.0488 10.5463 11.156 10.3859 11.2897 10.2183ZM4.58661 9.38876L4.76216 9.1988C4.97685 8.96644 5.31633 8.91776 5.58268 9.06119C5.63195 9.08773 5.67885 9.12088 5.72204 9.16078L8.90521 12.1022C8.96363 12.1561 9.01024 12.2179 9.0452 12.2842C9.17574 12.5318 9.1436 12.8449 8.94299 13.062L8.76747 13.252C8.51288 13.5275 8.08321 13.5445 7.80769 13.2899L4.62452 10.3485C4.349 10.0939 4.33204 9.66426 4.58661 9.38876ZM9.87666 3.66385L10.1621 3.35499C10.4166 3.07947 10.8463 3.06251 11.1218 3.31708L14.305 6.25847C14.5805 6.51306 14.5975 6.94273 14.3429 7.21823L14.0795 7.50325C13.8735 7.72626 13.5256 7.74009 13.3025 7.53404L9.90553 4.39508L9.88643 4.37653C9.695 4.18079 9.68879 3.86721 9.87666 3.66385ZM6.31684 7.99288L8.90692 5.18987C9.11463 4.96509 9.43909 4.91224 9.70124 5.03898C9.76011 5.06746 9.81608 5.10498 9.8668 5.15185L12.6223 7.69808C12.8979 7.95267 12.9147 8.38246 12.6601 8.65798L12.659 8.65921L12.658 8.66055L12.6568 8.66178C12.6562 8.66259 12.6551 8.66379 12.6538 8.66533C12.6511 8.66842 12.6471 8.67316 12.642 8.67906C12.6318 8.69099 12.6168 8.70826 12.5983 8.72984C12.5664 8.76687 12.5237 8.81651 12.4749 8.8732L12.0908 9.31971C11.9314 9.35711 11.7641 9.46763 11.6103 9.59896C11.4417 9.743 11.2764 9.92365 11.1379 10.0974C10.9996 10.2708 10.8847 10.4414 10.8182 10.5667C10.7866 10.6263 10.7597 10.6867 10.7527 10.7353C10.7514 10.7442 10.7495 10.76 10.7517 10.7786L10.0727 11.4584L10.0713 11.4596L10.07 11.461C9.84171 11.7081 9.47223 11.7474 9.19978 11.569C9.16858 11.5486 9.13856 11.5252 9.11017 11.499L6.35463 8.95276C6.32622 8.92652 6.30058 8.89846 6.27774 8.86897C6.07842 8.61143 6.0885 8.23998 6.31684 7.99288ZM5.88961 9.05144L6.15861 9.02922C6.17869 9.05209 6.20012 9.07419 6.22293 9.09527L8.97849 11.6415C9.00092 11.6622 9.02423 11.6816 9.04818 11.6995L9.04132 11.964C9.03983 11.9626 9.03841 11.9611 9.0369 11.9597L5.88961 9.05144ZM9.99848 5.00936C9.95295 4.96727 9.90371 4.93143 9.85239 4.90079L9.90111 4.65519L12.9987 7.51748L12.7245 7.52831L9.99848 5.00936Z" stroke="url(#paint5_linear_1692_26082)" stroke-width="0.194064"/>
<path d="M10.7224 15.5234H5.50518C5.28537 15.5234 5.05442 15.5418 4.87771 15.6725C4.69968 15.8042 4.56612 16.0184 4.5906 16.3967C3.57883 16.4754 3.39623 17.0724 3.62054 17.8522L11.9652 17.8846C12.3293 17.9218 12.3403 17.6379 12.2563 16.9789C11.9985 16.4716 11.7988 16.3295 11.3183 16.3967C11.1659 16.0055 11.3275 15.7399 10.7224 15.5234Z" fill="url(#paint6_linear_1692_26082)"/>
<path d="M10.7224 15.5234H5.50518C5.28537 15.5234 5.05442 15.5418 4.87771 15.6725C4.69968 15.8042 4.56612 16.0184 4.5906 16.3967C3.57883 16.4754 3.39623 17.0724 3.62054 17.8522L11.9652 17.8846C12.3293 17.9218 12.3403 17.6379 12.2563 16.9789C11.9985 16.4716 11.7988 16.3295 11.3183 16.3967C11.1659 16.0055 11.3275 15.7399 10.7224 15.5234Z" stroke="black" stroke-width="0.194064"/>
<path d="M10.7224 15.5234H5.50518C5.28537 15.5234 5.05442 15.5418 4.87771 15.6725C4.69968 15.8042 4.56612 16.0184 4.5906 16.3967C3.57883 16.4754 3.39623 17.0724 3.62054 17.8522L11.9652 17.8846C12.3293 17.9218 12.3403 17.6379 12.2563 16.9789C11.9985 16.4716 11.7988 16.3295 11.3183 16.3967C11.1659 16.0055 11.3275 15.7399 10.7224 15.5234Z" stroke="url(#paint7_linear_1692_26082)" stroke-width="0.194064"/>
<defs>
<radialGradient id="paint0_radial_1692_26082" cx="0" cy="0" r="1" gradientUnits="userSpaceOnUse" gradientTransform="translate(11.6872 12.0342) rotate(90) scale(10.4148 10.6405)">
<stop stop-color="#C1A0EC" stop-opacity="0.59"/>
<stop offset="1" stop-color="#9B4CFF" stop-opacity="0"/>
</radialGradient>
<linearGradient id="paint1_linear_1692_26082" x1="7.30247" y1="6.30539" x2="19.6723" y2="17.7356" gradientUnits="userSpaceOnUse">
<stop stop-color="#AC8AD9"/>
<stop offset="0.25" stop-color="#7825E5"/>
</linearGradient>
<linearGradient id="paint2_linear_1692_26082" x1="7.30274" y1="6.30258" x2="19.6726" y2="17.7328" gradientUnits="userSpaceOnUse">
<stop stop-color="#CBB1EC"/>
<stop offset="0.846154" stop-color="#7825E5"/>
</linearGradient>
<linearGradient id="paint3_linear_1692_26082" x1="7.3034" y1="6.3054" x2="19.6733" y2="17.7356" gradientUnits="userSpaceOnUse">
<stop stop-color="#CBB1EC"/>
<stop offset="0.533654" stop-color="#7825E5"/>
</linearGradient>
<linearGradient id="paint4_linear_1692_26082" x1="7.30298" y1="6.30398" x2="19.6728" y2="17.7342" gradientUnits="userSpaceOnUse">
<stop stop-color="#7825E5"/>
<stop offset="0.942308" stop-color="#CBB1EC"/>
</linearGradient>
<linearGradient id="paint5_linear_1692_26082" x1="7.30302" y1="6.30598" x2="19.6729" y2="17.7362" gradientUnits="userSpaceOnUse">
<stop stop-color="#7825E5"/>
<stop offset="0.413462" stop-color="#B583F6"/>
</linearGradient>
<linearGradient id="paint6_linear_1692_26082" x1="3.53515" y1="16.7056" x2="12.171" y2="17.5935" gradientUnits="userSpaceOnUse">
<stop stop-color="#7825E5"/>
<stop offset="0.530754" stop-color="#B583F6"/>
</linearGradient>
<linearGradient id="paint7_linear_1692_26082" x1="3.53515" y1="16.7056" x2="12.2993" y2="16.7056" gradientUnits="userSpaceOnUse">
<stop stop-color="#7825E5"/>
<stop offset="0.413462" stop-color="#B583F6"/>
</linearGradient>
</defs>
</svg>
