<svg width="22" height="22" viewBox="0 0 22 22" fill="none" xmlns="http://www.w3.org/2000/svg">
<path d="M8.70117 15.2508C8.70117 14.8642 9.01457 14.5508 9.40117 14.5508H14.7012C15.0878 14.5508 15.4012 14.8642 15.4012 15.2508C15.4012 15.6374 15.0878 15.9508 14.7012 15.9508H9.40117C9.01457 15.9508 8.70117 15.6374 8.70117 15.2508Z" fill="#7A24E7"/>
<path d="M7.80039 15.2508C7.80039 15.6374 7.48699 15.9508 7.10039 15.9508C6.71379 15.9508 6.40039 15.6374 6.40039 15.2508C6.40039 14.8642 6.71379 14.5508 7.10039 14.5508C7.48699 14.5508 7.80039 14.8642 7.80039 15.2508Z" fill="#7A24E7"/>
<path d="M8.70117 13.0516C8.70117 12.665 9.01457 12.3516 9.40117 12.3516H14.7012C15.0878 12.3516 15.4012 12.665 15.4012 13.0516C15.4012 13.4382 15.0878 13.7516 14.7012 13.7516H9.40117C9.01457 13.7516 8.70117 13.4382 8.70117 13.0516Z" fill="#7A24E7"/>
<path d="M7.80039 13.0516C7.80039 13.4382 7.48699 13.7516 7.10039 13.7516C6.71379 13.7516 6.40039 13.4382 6.40039 13.0516C6.40039 12.665 6.71379 12.3516 7.10039 12.3516C7.48699 12.3516 7.80039 12.665 7.80039 13.0516Z" fill="#7A24E7"/>
<path d="M8.70117 10.6492C8.70117 10.2626 9.01457 9.94922 9.40117 9.94922H14.7012C15.0878 9.94922 15.4012 10.2626 15.4012 10.6492C15.4012 11.0358 15.0878 11.3492 14.7012 11.3492H9.40117C9.01457 11.3492 8.70117 11.0358 8.70117 10.6492Z" fill="#7A24E7"/>
<path d="M7.80039 10.6492C7.80039 11.0358 7.48699 11.3492 7.10039 11.3492C6.71379 11.3492 6.40039 11.0358 6.40039 10.6492C6.40039 10.2626 6.71379 9.94922 7.10039 9.94922C7.48699 9.94922 7.80039 10.2626 7.80039 10.6492Z" fill="#7A24E7"/>
<path d="M7.80039 8.25078C7.80039 8.63738 7.48699 8.95078 7.10039 8.95078C6.71379 8.95078 6.40039 8.63738 6.40039 8.25078C6.40039 7.86418 6.71379 7.55078 7.10039 7.55078C7.48699 7.55078 7.80039 7.86418 7.80039 8.25078Z" fill="#7A24E7"/>
<path d="M8.70117 8.25078C8.70117 7.86418 9.01457 7.55078 9.40117 7.55078H14.7012C15.0878 7.55078 15.4012 7.86418 15.4012 8.25078C15.4012 8.63738 15.0878 8.95078 14.7012 8.95078H9.40117C9.01457 8.95078 8.70117 8.63738 8.70117 8.25078Z" fill="#7A24E7"/>
<path fill-rule="evenodd" clip-rule="evenodd" d="M17.8504 4.35C17.8504 3.46634 17.134 2.75 16.2504 2.75H5.75039C4.86674 2.75 4.15039 3.46635 4.15039 4.35V5.35H17.8504V4.35ZM9.40039 14.55H14.7004C15.087 14.55 15.4004 14.8634 15.4004 15.25C15.4004 15.6366 15.087 15.95 14.7004 15.95H9.40039C9.01379 15.95 8.70039 15.6366 8.70039 15.25C8.70039 14.8634 9.01379 14.55 9.40039 14.55ZM7.80039 15.25C7.80039 15.6366 7.48699 15.95 7.10039 15.95C6.71379 15.95 6.40039 15.6366 6.40039 15.25C6.40039 14.8634 6.71379 14.55 7.10039 14.55C7.48699 14.55 7.80039 14.8634 7.80039 15.25ZM9.40039 12.35H14.7004C15.087 12.35 15.4004 12.6634 15.4004 13.05C15.4004 13.4366 15.087 13.75 14.7004 13.75H9.40039C9.01379 13.75 8.70039 13.4366 8.70039 13.05C8.70039 12.6634 9.01379 12.35 9.40039 12.35ZM7.80039 13.05C7.80039 13.4366 7.48699 13.75 7.10039 13.75C6.71379 13.75 6.40039 13.4366 6.40039 13.05C6.40039 12.6634 6.71379 12.35 7.10039 12.35C7.48699 12.35 7.80039 12.6634 7.80039 13.05ZM9.40039 9.95H14.7004C15.087 9.95 15.4004 10.2634 15.4004 10.65C15.4004 11.0366 15.087 11.35 14.7004 11.35H9.40039C9.01379 11.35 8.70039 11.0366 8.70039 10.65C8.70039 10.2634 9.01379 9.95 9.40039 9.95ZM7.80039 10.65C7.80039 11.0366 7.48699 11.35 7.10039 11.35C6.71379 11.35 6.40039 11.0366 6.40039 10.65C6.40039 10.2634 6.71379 9.95 7.10039 9.95C7.48699 9.95 7.80039 10.2634 7.80039 10.65ZM7.80039 8.25C7.80039 8.6366 7.48699 8.95 7.10039 8.95C6.71379 8.95 6.40039 8.6366 6.40039 8.25C6.40039 7.8634 6.71379 7.55 7.10039 7.55C7.48699 7.55 7.80039 7.8634 7.80039 8.25ZM9.40039 7.55H14.7004C15.087 7.55 15.4004 7.8634 15.4004 8.25C15.4004 8.6366 15.087 8.95 14.7004 8.95H9.40039C9.01379 8.95 8.70039 8.6366 8.70039 8.25C8.70039 7.8634 9.01379 7.55 9.40039 7.55Z" fill="#7A24E7"/>
<path fill-rule="evenodd" clip-rule="evenodd" d="M4.15039 17.6516C4.15039 18.5353 4.86673 19.2516 5.75039 19.2516H16.2504C17.134 19.2516 17.8504 18.5353 17.8504 17.6516V5.35156H4.15039V17.6516ZM14.7004 14.5516H9.40039C9.01379 14.5516 8.70039 14.865 8.70039 15.2516C8.70039 15.6382 9.01379 15.9516 9.40039 15.9516H14.7004C15.087 15.9516 15.4004 15.6382 15.4004 15.2516C15.4004 14.865 15.087 14.5516 14.7004 14.5516ZM7.10039 15.9516C7.48699 15.9516 7.80039 15.6382 7.80039 15.2516C7.80039 14.865 7.48699 14.5516 7.10039 14.5516C6.71379 14.5516 6.40039 14.865 6.40039 15.2516C6.40039 15.6382 6.71379 15.9516 7.10039 15.9516ZM14.7004 12.3516H9.40039C9.01379 12.3516 8.70039 12.665 8.70039 13.0516C8.70039 13.4382 9.01379 13.7516 9.40039 13.7516H14.7004C15.087 13.7516 15.4004 13.4382 15.4004 13.0516C15.4004 12.665 15.087 12.3516 14.7004 12.3516ZM7.10039 13.7516C7.48699 13.7516 7.80039 13.4382 7.80039 13.0516C7.80039 12.665 7.48699 12.3516 7.10039 12.3516C6.71379 12.3516 6.40039 12.665 6.40039 13.0516C6.40039 13.4382 6.71379 13.7516 7.10039 13.7516ZM14.7004 9.95156H9.40039C9.01379 9.95156 8.70039 10.265 8.70039 10.6516C8.70039 11.0382 9.01379 11.3516 9.40039 11.3516H14.7004C15.087 11.3516 15.4004 11.0382 15.4004 10.6516C15.4004 10.265 15.087 9.95156 14.7004 9.95156ZM7.10039 11.3516C7.48699 11.3516 7.80039 11.0382 7.80039 10.6516C7.80039 10.265 7.48699 9.95156 7.10039 9.95156C6.71379 9.95156 6.40039 10.265 6.40039 10.6516C6.40039 11.0382 6.71379 11.3516 7.10039 11.3516ZM7.10039 8.95156C7.48699 8.95156 7.80039 8.63816 7.80039 8.25156C7.80039 7.86496 7.48699 7.55156 7.10039 7.55156C6.71379 7.55156 6.40039 7.86496 6.40039 8.25156C6.40039 8.63816 6.71379 8.95156 7.10039 8.95156ZM14.7004 7.55156H9.40039C9.01379 7.55156 8.70039 7.86496 8.70039 8.25156C8.70039 8.63816 9.01379 8.95156 9.40039 8.95156H14.7004C15.087 8.95156 15.4004 8.63816 15.4004 8.25156C15.4004 7.86496 15.087 7.55156 14.7004 7.55156Z" fill="url(#paint0_linear_1690_25918)"/>
<defs>
<linearGradient id="paint0_linear_1690_25918" x1="11.0004" y1="2.75156" x2="11.0004" y2="19.2516" gradientUnits="userSpaceOnUse">
<stop stop-color="white"/>
<stop offset="1" stop-color="#D4BBF5"/>
</linearGradient>
</defs>
</svg>
